<?xml version="1.0" encoding="UTF-8" standalone="no"?>
<!-- Created with Inkscape (http://www.inkscape.org/) -->

<svg
   xmlns:dc="http://purl.org/dc/elements/1.1/"
   xmlns:cc="http://creativecommons.org/ns#"
   xmlns:rdf="http://www.w3.org/1999/02/22-rdf-syntax-ns#"
   xmlns:svg="http://www.w3.org/2000/svg"
   xmlns="http://www.w3.org/2000/svg"
   xmlns:sodipodi="http://sodipodi.sourceforge.net/DTD/sodipodi-0.dtd"
   xmlns:inkscape="http://www.inkscape.org/namespaces/inkscape"
   width="171mm"
   height="33mm"
   viewBox="0 0 605.9054 116.92909"
   id="svg2"
   version="1.1"
   inkscape:version="0.91 r13725"
   sodipodi:docname="Izaura TV logo.svg">
  <defs
     id="defs4" />
  <sodipodi:namedview
     id="base"
     pagecolor="#ffffff"
     bordercolor="#666666"
     borderopacity="1.0"
     inkscape:pageopacity="0.0"
     inkscape:pageshadow="2"
     inkscape:zoom="1.89"
     inkscape:cx="336.30188"
     inkscape:cy="130.44212"
     inkscape:document-units="px"
     inkscape:current-layer="layer1"
     showgrid="false"
     inkscape:window-width="1920"
     inkscape:window-height="1017"
     inkscape:window-x="-8"
     inkscape:window-y="-8"
     inkscape:window-maximized="1" />
  <metadata
     id="metadata7">
    <rdf:RDF>
      <cc:Work
         rdf:about="">
        <dc:format>image/svg+xml</dc:format>
        <dc:type
           rdf:resource="http://purl.org/dc/dcmitype/StillImage" />
        <dc:title></dc:title>
      </cc:Work>
    </rdf:RDF>
  </metadata>
  <g
     inkscape:label="1. réteg"
     inkscape:groupmode="layer"
     id="layer1"
     style="display:inline"
     transform="translate(0,-935.43376)">
    <path
       style="fill:#000000;fill-opacity:1;fill-rule:evenodd;stroke:none;stroke-width:1px;stroke-linecap:butt;stroke-linejoin:miter;stroke-opacity:1"
       d="m 16.974813,955.15527 14.35598,0 0,80.96233 -14.35598,0 z"
       id="path4172"
       inkscape:connector-curvature="0"
       sodipodi:nodetypes="ccccc" />
    <path
       style="fill:#000000;fill-opacity:1;fill-rule:evenodd;stroke:none;stroke-width:1px;stroke-linecap:butt;stroke-linejoin:miter;stroke-opacity:1"
       d="m 45.600463,955.15527 0,13.49606 36.7765,0 -45.24406,67.46627 68.212807,0 0,-12.8216 -43.511387,0 45.013117,-68.14073 z"
       id="path4174"
       inkscape:connector-curvature="0"
       sodipodi:nodetypes="ccccccccc" />
    <path
       style="fill:#000000;fill-opacity:1;fill-rule:evenodd;stroke:none;stroke-width:1px;stroke-linecap:butt;stroke-linejoin:miter;stroke-opacity:1"
       d="m 148.77672,955.15534 -39.42383,80.96286 15.21094,0 7.53516,-15.8789 33.26758,0 7.53515,15.8789 15.92188,0 -40.04688,-80.96286 z m 0,27.19727 11.61328,25.02149 -22.88867,0 11.27539,-25.02149 z"
       id="path4176"
       inkscape:connector-curvature="0" />
    <path
       style="fill:#000000;fill-opacity:1;fill-rule:evenodd;stroke:none;stroke-width:1px;stroke-linecap:butt;stroke-linejoin:miter;stroke-opacity:1"
       d="m 188.42383,955.15527 14.92739,0 0,50.79653 c 1.10558,24.5526 35.93091,24.1886 35.68357,-0.1421 l 0,-50.65443 15.21173,0 0,56.34103 c -6.16391,36.0971 -60.56022,32.9567 -65.82269,0.1421 z"
       id="path4180"
       inkscape:connector-curvature="0"
       sodipodi:nodetypes="ccccccccc" />
    <path
       style="fill:#000000;fill-opacity:1;fill-rule:evenodd;stroke:none;stroke-width:1px;stroke-linecap:butt;stroke-linejoin:miter;stroke-opacity:1"
       d="m 267.14782,955.15534 0,80.96286 14.36718,0 0,-29.455 14.64453,0 17.34375,29.455 14.92774,0 -18.76563,-33.1523 c 20.7784,-9.98483 20.64131,-41.28888 -6.6289,-47.81056 l -35.88867,0 z m 14.36718,12.98047 18.90821,0 c 13.63989,1.53996 14.58432,23.25655 0.85351,26.08789 l -19.76172,0 0,-26.08789 z"
       id="path4182"
       inkscape:connector-curvature="0" />
    <path
       style="fill:#000000;fill-opacity:1;fill-rule:evenodd;stroke:none;stroke-width:1px;stroke-linecap:butt;stroke-linejoin:miter;stroke-opacity:1"
       d="m 371.76891,954.62605 -39.42383,80.96095 15.21094,0 7.53516,-15.877 33.26757,0 7.53516,15.877 15.92187,0 -40.04687,-80.96095 z m 0,27.19726 11.61328,25.01949 -22.88867,0 11.27539,-25.01949 z"
       id="path4176-7"
       inkscape:connector-curvature="0" />
  </g>
  <g
     inkscape:groupmode="layer"
     id="layer2"
     inkscape:label="1. réteg 1"
     transform="translate(0,-935.43376)">
    <path
       style="fill:#734a84;fill-opacity:1;fill-rule:evenodd;stroke:none;stroke-width:1px;stroke-linecap:butt;stroke-linejoin:miter;stroke-opacity:1"
       d="m 435.76535,951.89087 0,84.56633 153.97228,0 0,-84.56633 z"
       id="path4165"
       inkscape:connector-curvature="0"
       sodipodi:nodetypes="ccccc" />
  </g>
  <g
     inkscape:groupmode="layer"
     id="layer3"
     inkscape:label="1. réteg 2"
     transform="translate(0,-935.43376)">
    <path
       style="fill:#ffffff;fill-opacity:1;fill-rule:evenodd;stroke:none;stroke-width:1px;stroke-linecap:butt;stroke-linejoin:miter;stroke-opacity:1"
       d="m 455.95287,961.52023 45.63516,0 0.14217,10.52509 -17.05988,0 0,54.72888 -11.87083,0 0,-54.72888 -16.98879,0 z"
       id="path4168"
       inkscape:connector-curvature="0"
       sodipodi:nodetypes="ccccccccc" />
    <path
       style="fill:#ffffff;fill-opacity:1;fill-rule:evenodd;stroke:none;stroke-width:1px;stroke-linecap:butt;stroke-linejoin:miter;stroke-opacity:1"
       d="m 509.83364,961.52023 11.9893,0 17.72332,40.86777 18.86064,-40.86777 12.13147,0 -30.99211,65.25397 z"
       id="path4170"
       inkscape:connector-curvature="0"
       sodipodi:nodetypes="ccccccc" />
  </g>
</svg>
