<?xml version="1.0" encoding="UTF-8" standalone="no"?>
<!-- Created with Inkscape (http://www.inkscape.org/) -->

<svg
   xmlns:dc="http://purl.org/dc/elements/1.1/"
   xmlns:cc="http://creativecommons.org/ns#"
   xmlns:rdf="http://www.w3.org/1999/02/22-rdf-syntax-ns#"
   xmlns:svg="http://www.w3.org/2000/svg"
   xmlns="http://www.w3.org/2000/svg"
   xmlns:sodipodi="http://sodipodi.sourceforge.net/DTD/sodipodi-0.dtd"
   xmlns:inkscape="http://www.inkscape.org/namespaces/inkscape"
   width="146.13824mm"
   height="100.68076mm"
   viewBox="0 0 517.81268 356.7428"
   id="svg2"
   version="1.1"
   inkscape:version="0.91 r13725"
   sodipodi:docname="m4sport_logo_white.svg">
  <defs
     id="defs4" />
  <sodipodi:namedview
     id="base"
     pagecolor="#ffffff"
     bordercolor="#666666"
     borderopacity="1.0"
     inkscape:pageopacity="0.0"
     inkscape:pageshadow="2"
     inkscape:zoom="1.2487712"
     inkscape:cx="223.05292"
     inkscape:cy="152.91395"
     inkscape:document-units="px"
     inkscape:current-layer="layer1"
     showgrid="false"
     inkscape:window-width="1280"
     inkscape:window-height="962"
     inkscape:window-x="-8"
     inkscape:window-y="-8"
     inkscape:window-maximized="1"
     fit-margin-top="0"
     fit-margin-left="0"
     fit-margin-right="0"
     fit-margin-bottom="0"
     showguides="true"
     inkscape:guide-bbox="true" />
  <metadata
     id="metadata7">
    <rdf:RDF>
      <cc:Work
         rdf:about="">
        <dc:format>image/svg+xml</dc:format>
        <dc:type
           rdf:resource="http://purl.org/dc/dcmitype/StillImage" />
        <dc:title></dc:title>
      </cc:Work>
    </rdf:RDF>
  </metadata>
  <g
     inkscape:label="Layer 1"
     inkscape:groupmode="layer"
     id="layer1"
     transform="translate(-70.229569,-597.06517)">
    <g
       id="g4147"
       transform="translate(-46.956141,395.93151)">
      <path
         style="fill:#fefefe"
         d="m 117.18571,379.50506 0,-178.37142 258.90634,0 258.90634,0 0,178.37142 0,178.37141 -258.90634,0 -258.90634,0 0,-178.37141 z"
         id="path4163"
         inkscape:connector-curvature="0" />
      <path
         style="fill:#d0d0d0"
         d="m 188.08342,551.36528 c -5.30047,-3.10263 -9.82757,-5.94395 -10.06024,-6.31406 -0.33631,-0.53495 1.60646,-4.16666 9.47578,-17.71356 5.44436,-9.37235 10.10111,-17.42799 10.34833,-17.90143 0.41371,-0.79226 0.16416,-1.01894 -3.13413,-2.84685 -36.81845,-20.40484 -63.4361,-56.49863 -71.71244,-97.24274 -2.38528,-11.74263 -2.70283,-15.23335 -2.69594,-29.63561 0.007,-14.11416 0.33905,-17.90916 2.507,-28.63006 10.26603,-50.76741 47.33584,-92.53315 96.53586,-108.7648 21.4304,-7.07013 43.0591,-9.03882 65.49898,-5.96184 5.96603,0.81807 7.91762,1.19792 15.13694,2.94625 3.45408,0.83648 6.35383,1.44275 6.44388,1.34726 0.0901,-0.0955 5.09948,-8.59934 11.13205,-18.89743 6.03258,-10.29809 11.19519,-18.86401 11.47246,-19.03538 0.55933,-0.34569 1.47164,0.13623 12.79977,6.76132 4.26684,2.49539 7.85345,4.78612 7.97025,5.0905 0.1168,0.30438 -4.34746,8.32817 -9.92059,17.83064 -5.57312,9.50247 -10.13295,17.441 -10.13295,17.64119 0,0.20019 0.88053,0.78715 1.95673,1.30436 3.37916,1.62399 8.36757,4.57813 13.49115,7.98945 31.68728,21.09766 54.12917,54.38032 61.56238,91.30068 2.31731,11.50995 2.66108,15.22133 2.67424,28.87189 0.009,9.71561 -0.15266,13.80652 -0.71468,18.04336 -2.69509,20.31727 -9.10057,39.02772 -19.18186,56.03032 -20.84757,35.16045 -55.95426,60.17824 -95.70033,68.19814 -10.19066,2.05626 -17.60793,2.76502 -28.96869,2.76812 -13.47548,0.004 -24.05581,-1.30156 -36.04504,-4.4467 -3.05867,-0.80238 -6.02467,-1.53602 -6.59109,-1.6303 -0.9661,-0.16081 -1.70557,0.99446 -11.94382,18.6597 -10.40415,17.95147 -11.64122,19.95515 -12.28727,19.9018 -0.15374,-0.0127 -4.61627,-2.5616 -9.91673,-5.66422 z m 64.52806,-53.73551 c 0.22509,-0.28321 16.85838,-29.24796 36.96286,-64.36612 20.10448,-35.11816 36.72684,-64.03475 36.93859,-64.25909 0.46988,-0.49784 2.82148,0.70322 13.12214,6.70202 6.65888,3.87793 7.6199,4.56698 7.61262,5.45828 -0.005,0.58636 -13.98636,25.42426 -32.88457,58.41859 -18.08194,31.5692 -32.76462,57.51016 -32.62819,57.6466 0.69127,0.69126 14.8481,-2.55863 21.97192,-5.04395 17.30191,-6.03619 32.1581,-15.37816 45.20777,-28.42783 18.65635,-18.65634 29.84194,-41.27342 33.8249,-68.3934 0.89844,-6.1175 1.03117,-23.45665 0.22546,-29.45394 -1.7791,-13.24271 -5.18874,-25.15615 -10.54093,-36.83047 -4.39163,-9.57914 -12.58516,-21.71978 -19.93727,-29.54175 l -2.46363,-2.62108 -0.97162,1.6386 c -13.86098,23.37592 -113.93414,196.15775 -113.72687,196.35571 0.38123,0.36413 9.74706,2.28149 13.47997,2.7596 1.58431,0.20292 2.99689,0.39239 3.13907,0.42105 0.14219,0.0287 0.44269,-0.17961 0.66778,-0.46282 z m 18.32189,-113.75025 c 32.56367,-56.03655 59.31311,-102.16202 59.44321,-102.50106 0.16395,-0.42724 -0.55986,-1.13245 -2.3585,-2.2979 -3.76345,-2.43855 -11.14869,-6.31682 -11.64474,-6.11509 -0.23375,0.0951 -8.38302,13.77073 -18.10948,30.39038 -9.72647,16.61964 -36.55942,62.41961 -59.62879,101.7777 -23.06937,39.35809 -41.94192,71.70594 -41.93899,71.8841 0.0118,0.72091 13.18964,8.70539 14.41269,8.7327 0.39363,0.009 22.10894,-36.96859 59.8246,-101.87083 z m -83.48299,59.85774 C 256.76546,325.53002 292.2616,264.84564 292.2616,264.55147 c 0,-0.48485 -2.17369,-1.03661 -8.02394,-2.03676 -3.9579,-0.67663 -5.00732,-0.73813 -5.41632,-0.3174 -0.41918,0.4312 -19.8279,31.74562 -70.79259,114.21817 -5.01805,8.12036 -5.99697,9.47469 -6.84837,9.47469 -1.12975,0 -19.58762,-11.18313 -19.92985,-12.07497 -0.12488,-0.32545 14.72159,-24.74898 33.97357,-55.88902 18.80747,-30.42103 34.1954,-55.42661 34.1954,-55.56795 0,-0.47558 -2.02505,-0.26271 -7.3093,0.76837 -45.48696,8.87548 -81.75752,43.47427 -92.76515,88.48944 -2.41458,9.87432 -3.07223,15.80363 -3.0933,27.88902 -0.0198,11.38676 0.25347,14.53607 2.05665,23.69814 3.60219,18.30294 12.12021,36.54183 23.76072,50.87671 1.87361,2.30728 3.76918,4.64123 4.21239,5.18656 0.4432,0.54532 0.99475,0.92852 1.22565,0.85155 0.23091,-0.077 4.70536,-7.44831 9.94322,-16.38076 z M 484.84507,426.2722 c -1.13284,-0.32623 -2.17,-0.60132 -2.3048,-0.61133 -0.66937,-0.0496 -5.31234,-3.36076 -5.68253,-4.05247 -0.34827,-0.65076 -0.0831,-1.29063 1.46279,-3.52957 1.03851,-1.50409 2.1249,-2.73471 2.41421,-2.73471 0.28931,0 1.48576,0.64585 2.65878,1.43523 4.44446,2.99091 9.80226,3.54336 12.09815,1.24747 1.91804,-1.91804 0.13378,-3.33484 -6.19775,-4.92137 -4.98602,-1.24938 -7.61489,-2.476 -9.46989,-4.41863 -1.69215,-1.77208 -2.25758,-3.30276 -2.26465,-6.13057 -0.0106,-4.23714 2.1043,-7.33326 6.34773,-9.29285 2.34842,-1.08449 2.98271,-1.19205 6.91114,-1.17203 3.32936,0.017 4.86306,0.22049 6.66024,0.8838 2.83518,1.04643 6.11,3.23181 6.11,4.07739 0,1.03494 -3.3983,5.52132 -4.18223,5.52132 -0.39848,0 -1.40698,-0.46314 -2.24111,-1.0292 -1.8165,-1.23271 -4.07201,-1.8881 -6.68618,-1.94281 -2.43964,-0.0511 -3.66721,0.34348 -4.20703,1.35213 -0.72226,1.34955 0.19807,2.35819 2.80542,3.07462 10.36179,2.84715 12.94507,4.17418 14.55184,7.47527 1.11051,2.28154 1.27135,5.56289 0.39854,8.13097 -0.76868,2.2617 -3.36684,4.91957 -5.90695,6.04271 -2.73098,1.20754 -10.01451,1.53377 -13.27572,0.59463 z m 64.23271,-0.1648 c -8.0172,-2.73616 -12.77358,-10.0035 -11.99612,-18.32903 0.8313,-8.90243 7.32822,-15.16418 16.39732,-15.80376 7.54692,-0.53224 14.13287,3.16244 17.37441,9.747 1.26771,2.57507 1.32365,2.89795 1.32365,7.64067 0,4.51197 -0.0983,5.16158 -1.10557,7.31088 -2.2128,4.72124 -5.81079,7.91184 -10.60457,9.40384 -3.26914,1.01747 -8.45638,1.03132 -11.38912,0.0304 z m 8.63346,-7.15048 c 2.2376,-0.66858 4.85957,-3.32311 5.54377,-5.61255 1.56695,-5.24356 -0.18426,-10.87313 -3.97505,-12.77832 -6.71368,-3.37416 -13.67326,1.16225 -13.67326,8.91254 0,6.86042 5.76305,11.37312 12.10454,9.47833 z m -49.08118,7.16716 c -0.40721,-0.2585 -0.49636,-3.93463 -0.41195,-16.98635 l 0.10773,-16.65646 9.47469,0.004 c 8.71717,0.004 9.62328,0.0726 11.33306,0.86019 4.11164,1.89388 6.3382,5.5046 6.32567,10.25807 -0.009,3.36346 -0.68992,5.19926 -2.79219,7.5262 -2.36752,2.62055 -4.85758,3.4562 -11.0468,3.70723 l -5.26154,0.2134 0,5.21368 c 0,3.50583 -0.16193,5.37561 -0.49433,5.70801 -0.55783,0.55783 -6.40158,0.68047 -7.23434,0.15183 z m 16.76196,-19.62151 c 1.30633,-0.67553 1.67724,-1.37372 1.67724,-3.15722 0,-2.63702 -3.0537,-3.93256 -8.44484,-3.58275 l -2.05972,0.13364 -0.11902,3.60451 -0.11903,3.6045 3.94996,0 c 2.66099,0 4.33027,-0.19667 5.11541,-0.60268 z m 51.21341,19.69119 c -0.39999,-0.16141 -0.51493,-3.92153 -0.51493,-16.8493 l 0,-16.64153 0.99711,-0.25026 c 0.54842,-0.13764 4.85838,-0.18751 9.57768,-0.11083 8.44146,0.13716 8.61884,0.15822 10.94085,1.29845 1.29815,0.63747 2.92549,1.8424 3.61632,2.67763 2.22853,2.69432 3.05275,7.29244 1.96196,10.94551 -0.48737,1.63217 -3.63564,5.26268 -5.40486,6.2327 -0.69824,0.38284 -0.48102,0.89207 2.60336,6.10236 2.71879,4.59275 3.27087,5.79831 2.87409,6.27637 -0.73149,0.88143 -7.91104,0.83897 -8.64978,-0.0511 -0.29343,-0.35357 -1.77564,-2.90247 -3.29378,-5.66422 l -2.76026,-5.02136 -2.11191,-0.12451 -2.11191,-0.12451 0,5.2944 c 0,3.56861 -0.16115,5.45553 -0.49433,5.78873 -0.48643,0.48642 -6.14356,0.65975 -7.22961,0.22151 z m 17.42335,-20.09964 c 1.35867,-1.35869 1.37527,-3.60547 0.0367,-4.94422 -1.08139,-1.08139 -3.95638,-1.6153 -7.47026,-1.3873 l -2.05972,0.13364 -0.11901,3.60451 -0.11905,3.6045 4.36017,0 c 4.08006,0 4.42514,-0.065 5.37133,-1.01113 z m 20.84087,19.82262 c -0.30665,-0.3695 -0.49207,-4.72714 -0.56535,-13.28517 l -0.10904,-12.73533 -4.53138,-0.20597 -4.53138,-0.20597 -0.12181,-3.02469 c -0.0755,-1.87535 0.0611,-3.24501 0.35942,-3.60451 0.65166,-0.7852 25.88166,-0.86609 26.66229,-0.0855 0.54731,0.5473 0.67678,5.58385 0.16428,6.39033 -0.20712,0.3259 -1.81584,0.54069 -4.62806,0.61791 l -4.31061,0.11837 -0.10904,12.73533 c -0.0733,8.55803 -0.2587,12.91567 -0.56536,13.28517 -0.31311,0.37724 -1.52386,0.54984 -3.85698,0.54984 -2.33312,0 -3.54386,-0.1726 -3.85698,-0.54984 z M 480.15459,378.94361 c -0.33699,-0.40605 -0.43647,-6.76251 -0.3594,-22.96584 l 0.10656,-22.40438 7.04772,-0.11247 c 5.3291,-0.085 7.14605,0.0154 7.45095,0.41194 0.22179,0.28843 2.4888,5.91567 5.03781,12.50499 4.61688,11.93487 5.19711,13.29852 5.5017,12.93006 0.0882,-0.10672 2.37999,-5.94065 5.09281,-12.96428 l 4.93242,-12.77024 7.18489,0 7.18489,0 0.10653,22.63036 c 0.084,17.83137 -0.004,22.70018 -0.41193,22.95953 -0.60448,0.38375 -8.5867,0.46044 -9.54754,0.0917 -0.57655,-0.22124 -0.65161,-1.8678 -0.65161,-14.29443 0,-8.07292 -0.15361,-13.87799 -0.36128,-13.65304 -0.19871,0.21524 -2.70985,6.41602 -5.58031,13.7795 -2.87046,7.36349 -5.52393,13.61988 -5.8966,13.90309 -0.9028,0.68609 -4.02598,0.65769 -4.72665,-0.043 -0.30685,-0.30684 -2.96167,-6.73814 -5.89962,-14.29176 l -5.34171,-13.73386 -0.10525,13.77683 c -0.0945,12.3665 -0.17633,13.82955 -0.79963,14.29177 -1.00798,0.74747 -9.33807,0.70858 -9.96475,-0.0465 z m 75.98608,-0.0859 c -0.50154,-0.50156 -0.64733,-1.56842 -0.64733,-4.73735 l 0,-4.09001 -10.28408,0 c -12.0851,0 -11.32082,0.35227 -11.05252,-5.09451 l 0.16502,-3.35033 8.15953,-12.77024 c 4.48775,-7.02363 8.61538,-13.37713 9.17245,-14.11888 l 1.01293,-1.34865 6.87158,0.11282 6.87159,0.11282 0.20597,13.38815 0.20597,13.38816 2.67763,0.20597 2.67763,0.20597 0,4.53137 0,4.53138 -2.67763,0.20597 -2.67763,0.20597 -0.11835,4.3106 c -0.0772,2.81223 -0.29203,4.42095 -0.61792,4.62806 -0.27476,0.17459 -2.47911,0.32029 -4.89854,0.32376 -3.45591,0.005 -4.53772,-0.13247 -5.0463,-0.64103 z m -0.74043,-25.91229 c 0.0724,-4.74938 -0.0293,-7.26039 -0.28387,-7.00303 -1.13202,1.14478 -9.074,13.90642 -8.86498,14.24468 0.13928,0.22533 2.13782,0.34558 4.6403,0.27921 l 4.39568,-0.11659 0.11287,-7.40427 z"
         id="path4161"
         inkscape:connector-curvature="0" />
      <path
         style="fill:#f4a0a0"
         d="m 187.73165,550.94213 c -6.64603,-3.90693 -9.57722,-5.84859 -9.57768,-6.34442 -3.6e-4,-0.39297 4.54102,-8.5248 10.09195,-18.07073 5.55094,-9.54593 10.09261,-17.59661 10.09261,-17.89039 0,-0.29378 -1.77421,-1.49059 -3.94269,-2.65959 -11.43311,-6.16342 -26.14857,-17.67811 -35.09739,-27.46333 -21.13628,-23.11178 -33.45287,-49.1644 -37.84866,-80.05923 -0.92878,-6.52775 -1.07279,-29.25744 -0.22446,-35.42711 3.96853,-28.86185 13.573,-51.70638 31.00141,-73.73784 6.62143,-8.37022 19.24829,-20.30177 28.6042,-27.02907 25.32368,-18.20882 56.63949,-27.75471 87.94989,-26.80947 11.61783,0.35074 19.76144,1.46243 31.45918,4.29455 5.1267,1.24122 6.18012,1.38783 6.46503,0.8998 13.4824,-23.09396 22.24505,-37.68134 22.68478,-37.76382 0.87024,-0.16324 19.89833,11.13272 20.04488,11.89958 0.0706,0.36916 -4.31855,8.24757 -9.75356,17.50758 -5.43501,9.26001 -10.00184,17.15047 -10.14852,17.53434 -0.20973,0.54894 0.33458,1.00136 2.54922,2.11888 11.82994,5.96944 23.91668,14.93355 34.76837,25.78592 23.23332,23.23475 36.75083,50.65216 41.44565,84.06372 0.91469,6.5096 1.04726,28.48009 0.20878,34.60323 -2.52235,18.41999 -6.77069,32.58537 -14.33131,47.78541 -18.5711,37.33575 -52.6923,65.07937 -92.74228,75.40786 -12.74967,3.28801 -23.35583,4.6061 -36.97562,4.59517 -13.11281,-0.0105 -22.39518,-1.17198 -35.56618,-4.4502 -4.15472,-1.03409 -7.60838,-1.81917 -7.67482,-1.7446 -0.0664,0.0746 -5.12731,8.75549 -11.24641,19.29094 -8.00671,13.78543 -11.3406,19.17462 -11.89248,19.22405 -0.42178,0.0378 -5.07653,-2.46477 -10.34389,-5.56123 z m 65.5537,-53.93027 c 0.54667,-0.84963 11.7035,-20.26761 24.79295,-43.15105 13.08946,-22.88345 29.31716,-51.24574 36.06156,-63.02732 6.79852,-11.87612 12.54926,-21.48042 12.90602,-21.5543 0.65021,-0.13464 19.53878,10.41576 20.10283,11.22865 0.16755,0.24146 0.21669,0.6786 0.1092,0.97143 -0.10748,0.29283 -14.92883,26.25907 -32.93632,57.70276 -18.0075,31.44368 -32.86009,57.48093 -33.00575,57.86054 -0.37958,0.98915 1.24115,0.90799 7.33469,-0.3673 18.84128,-3.94319 34.58126,-11.24716 50.16065,-23.27649 5.09913,-3.9372 15.07104,-13.8779 19.30353,-19.24312 13.90318,-17.62402 22.31859,-37.83699 25.24859,-60.64454 0.90548,-7.04835 0.67884,-23.16575 -0.42865,-30.48379 -3.69002,-24.38282 -14.1954,-46.55656 -30.25153,-63.85205 -2.02231,-2.17842 -2.48504,-2.49508 -2.94156,-2.01301 -0.79527,0.83978 -115.19969,197.77654 -115.00522,197.971 0.48055,0.48055 7.48409,1.86823 15.91899,3.15417 0.56642,0.0863 1.16626,0.18225 1.33297,0.21311 0.16671,0.0309 0.75038,-0.63906 1.29705,-1.48869 z M 271.3659,383.56935 c 46.12622,-79.36472 59.5358,-102.73976 59.18282,-103.16508 -1.25354,-1.51041 -13.85188,-8.3036 -14.38639,-7.75732 -0.431,0.44047 -119.37829,203.3543 -119.70579,204.20776 -0.1507,0.39269 0.77138,1.24435 2.78509,2.57241 4.44191,2.92948 11.15833,6.75272 11.86714,6.75521 0.38889,0.001 22.72279,-38.03144 60.25713,-102.61298 z m -36.07165,-20.98693 c 31.5408,-53.79196 57.3542,-98.01678 57.3631,-98.27739 0.0193,-0.56559 -2.31431,-1.15767 -8.66353,-2.19809 -3.61751,-0.59279 -4.82161,-0.65897 -5.19687,-0.28564 -0.26863,0.26725 -17.61716,28.18929 -38.55229,62.04898 -20.93513,33.85969 -38.32826,61.72985 -38.6514,61.93368 -0.70884,0.44712 -20.1444,-11.39778 -20.1444,-12.27689 0,-0.30398 14.02353,-23.2283 31.16341,-50.94295 39.25832,-63.4795 37.40239,-60.43698 37.0694,-60.76997 -0.4079,-0.40789 -8.45489,0.94788 -14.127,2.38014 -28.28584,7.14245 -52.73529,24.31966 -69.43455,48.78193 -18.01457,26.38905 -24.53521,59.37426 -18.03775,91.24543 3.83012,18.7874 12.63376,36.84577 25.56553,52.44102 1.84145,2.22073 3.56215,3.96694 3.82377,3.88049 0.26162,-0.0865 26.28178,-44.1688 57.82258,-97.96074 z m 249.38701,63.23201 c -2.53969,-0.68294 -6.85307,-3.16245 -7.45366,-4.28467 -0.32194,-0.60155 -0.0285,-1.26537 1.44312,-3.2644 1.92808,-2.61911 2.60485,-2.96732 3.54927,-1.82615 0.90686,1.0958 5.23248,2.95628 7.54513,3.24523 2.73393,0.34158 5.38977,-0.36462 6.23763,-1.65862 1.48429,-2.26531 -0.08,-3.54127 -6.33447,-5.16684 -7.78848,-2.02428 -10.73527,-4.15742 -11.61293,-8.40647 -0.92362,-4.47154 1.18575,-8.40941 5.69391,-10.62964 2.52548,-1.24377 3.02525,-1.3416 6.85329,-1.3416 2.88102,0 4.81402,0.2259 6.39485,0.74735 2.66749,0.8799 6.17721,3.12522 6.17835,3.95256 4.1e-4,0.31926 -0.74671,1.57054 -1.66032,2.78062 -1.69324,2.24268 -2.76129,2.70624 -3.68124,1.59777 -0.88754,-1.06942 -4.8559,-2.28124 -7.47042,-2.28124 -2.73038,0 -3.82612,0.40946 -4.50868,1.68484 -0.75311,1.40721 0.46141,2.71901 3.21482,3.47229 7.55956,2.06817 10.2717,3.09959 11.96767,4.55127 2.40567,2.05917 3.10399,3.56495 3.13931,6.76933 0.0537,4.86843 -2.81877,8.63712 -7.68438,10.08205 -2.66535,0.79152 -8.82569,0.77917 -11.81125,-0.0237 z m 64.81649,0.0653 c -4.5041,-1.48318 -8.30605,-4.588 -10.20367,-8.33278 -2.05885,-4.06297 -2.42774,-9.81843 -0.90685,-14.14916 1.66405,-4.7384 5.92267,-8.78657 10.84165,-10.30589 8.55079,-2.64108 17.80213,1.23531 21.43217,8.98023 1.00555,2.14541 1.10405,2.79723 1.10405,7.3075 0,4.75987 -0.0522,5.05805 -1.34611,7.68632 -1.7255,3.50501 -5.30591,6.90585 -8.62926,8.19654 -2.94004,1.14181 -9.67231,1.47987 -12.29198,0.61724 z m 7.96447,-6.48811 c 2.44283,-0.61511 5.45599,-3.51643 6.17841,-5.94901 0.63262,-2.13034 0.64856,-5.96359 0.0334,-8.01712 -1.57033,-5.24118 -8.05098,-7.87873 -13.21559,-5.37858 -7.56168,3.66053 -6.73907,16.72217 1.20691,19.16441 2.46881,0.7588 3.38617,0.78733 5.79694,0.1803 z m -48.73587,6.1639 c -0.11242,-0.29297 -0.15584,-7.76184 -0.0965,-16.59748 l 0.10792,-16.0648 8.41229,-0.11174 c 10.24926,-0.13614 11.83026,0.19573 14.84129,3.11537 3.03174,2.93973 3.97698,6.7862 2.71067,11.03066 -0.81936,2.74641 -2.65316,4.84118 -5.42546,6.19754 -2.07597,1.01567 -2.85865,1.14753 -7.80725,1.31537 l -5.49998,0.18653 -0.11426,5.61086 -0.11426,5.61087 -3.40503,0.11975 c -2.49388,0.0877 -3.45973,-0.0228 -3.60944,-0.41293 z m 16.70338,-18.66047 c 2.241,-1.15887 2.75548,-3.86869 1.09991,-5.7934 -1.02769,-1.19476 -3.24985,-1.75374 -7.15063,-1.79873 -3.42008,-0.0395 -3.43222,-0.025 -3.43222,4.07029 0,1.97711 0.12358,3.71834 0.27463,3.86938 0.56915,0.56916 7.97621,0.2896 9.20831,-0.34754 z m 51.26728,18.66047 c -0.11246,-0.29297 -0.15588,-7.76184 -0.0965,-16.59748 l 0.10793,-16.0648 9.06275,0 c 10.25001,0 11.69276,0.29566 14.33472,2.93764 2.04686,2.04686 2.89979,4.02883 3.09242,7.18597 0.13095,2.14578 -0.0255,3.15222 -0.75304,4.84333 -0.9136,2.12371 -2.91042,4.25923 -4.77846,5.11036 -0.53853,0.24537 -0.97914,0.62072 -0.97914,0.83411 0,0.21338 1.49416,2.87117 3.32038,5.90619 1.82623,3.03502 3.20558,5.70398 3.06527,5.93102 -0.42455,0.68691 -7.45761,0.51783 -8.17188,-0.19645 -0.33512,-0.3351 -1.49169,-2.23518 -2.5702,-4.22242 -3.76067,-6.92929 -3.60792,-6.76249 -6.06351,-6.62063 l -2.14433,0.12387 -0.20597,5.56123 -0.20598,5.56124 -3.40504,0.11975 c -2.49386,0.0877 -3.4597,-0.0228 -3.6094,-0.41293 z m 17.76147,-19.40008 c 1.29552,-1.50742 1.31265,-3.57634 0.0418,-5.05379 -1.02772,-1.19476 -3.24986,-1.75374 -7.15064,-1.79873 -3.42007,-0.0395 -3.43222,-0.025 -3.43222,4.07029 0,1.97711 0.13874,3.73352 0.30834,3.90311 0.16959,0.1696 2.31784,0.24684 4.77388,0.17165 4.30646,-0.13185 4.50085,-0.17788 5.45883,-1.29253 z m 20.62933,19.6246 c -0.15106,-0.15104 -0.27464,-6.0795 -0.27464,-13.17433 l 0,-12.89971 -0.92687,-0.2139 c -0.50978,-0.11765 -2.59524,-0.26021 -4.63436,-0.31681 l -3.70749,-0.1029 0,-3.08958 0,-3.08957 12.72076,-0.10902 c 9.26123,-0.0794 12.879,0.0223 13.30252,0.3738 0.4187,0.34747 0.548,1.24406 0.46141,3.19859 l -0.12032,2.71578 -3.70749,0.1029 c -2.03912,0.0566 -4.12459,0.19916 -4.63437,0.31681 l -0.92687,0.2139 0,12.68 c 0,9.31297 -0.13124,12.81127 -0.49433,13.17434 -0.52288,0.52286 -6.56666,0.71099 -7.05795,0.2197 z M 480.29669,378.57818 c -0.10842,-0.28321 -0.14894,-10.43246 -0.0901,-22.55389 l 0.10707,-22.03896 6.83312,-0.11264 6.83314,-0.11265 0.68009,1.55445 c 0.37405,0.85494 2.69236,6.73527 5.15179,13.06738 2.45944,6.33212 4.6462,11.5711 4.85947,11.64219 0.21326,0.0711 2.59163,-5.57317 5.28526,-12.5428 2.69364,-6.96962 5.07338,-12.90376 5.28834,-13.18697 0.28468,-0.3751 2.22391,-0.51493 7.14095,-0.51493 l 6.75016,0 -0.10652,22.55389 -0.1065,22.55389 -4.73735,0 -4.73734,0 -0.10843,-14.40285 c -0.0596,-7.92157 -0.25229,-14.54672 -0.42812,-14.72256 -0.17584,-0.17583 -2.88529,6.24848 -6.021,14.27624 -3.14658,8.05557 -5.96942,14.69882 -6.29965,14.82554 -1.10442,0.4238 -3.72126,0.23487 -4.1658,-0.30077 -0.24209,-0.29171 -2.78574,-6.54809 -5.65255,-13.90308 -2.86682,-7.355 -5.46463,-13.83615 -5.77293,-14.40257 -0.48193,-0.88543 -0.56285,0.99508 -0.57703,13.40875 -0.0122,10.6618 -0.1458,14.56791 -0.51083,14.93294 -0.70299,0.703 -9.34537,0.68448 -9.61528,-0.0206 z m 76.09757,-0.0102 c -0.25145,-0.30301 -0.51069,-2.39429 -0.57606,-4.64728 l -0.11889,-4.09634 -10.27885,-0.11036 c -7.59285,-0.0815 -10.36305,-0.243 -10.60119,-0.61792 -0.17734,-0.27915 -0.32527,-1.8589 -0.32873,-3.51055 -0.005,-2.20014 0.20992,-3.41161 0.80254,-4.53138 0.44486,-0.8406 4.48232,-7.27498 8.97209,-14.29861 l 8.16319,-12.77024 6.88205,-0.11292 6.882,-0.11292 0.10872,13.2951 0.10871,13.29511 1.85374,0.10863 c 3.93839,0.23081 3.75128,-0.0145 3.6188,4.74313 l -0.11728,4.21099 -2.33444,0.12252 c -1.28395,0.0674 -2.5281,0.35583 -2.76476,0.64099 -0.23666,0.28515 -0.48374,2.36183 -0.54912,4.61482 l -0.11889,4.09636 -4.57318,0.1159 c -3.42927,0.0869 -4.68759,-0.0219 -5.03045,-0.43501 z m -0.48898,-26.13351 c 0,-6.98809 -0.0808,-8.03701 -0.57906,-7.51797 -0.44157,0.45999 -7.96501,11.99152 -9.86741,15.12421 -0.24387,0.40162 0.8711,0.51493 5.06691,0.51493 l 5.37956,0 0,-8.12117 z"
         id="path4159"
         inkscape:connector-curvature="0" />
      <path
         style="fill:#a1a1a1"
         d="m 188.24274,550.72441 c -5.20933,-3.02735 -9.5268,-5.78384 -9.59438,-6.12553 -0.0676,-0.34169 4.43594,-8.46146 10.00782,-18.04392 5.57188,-9.58246 10.04489,-17.64625 9.94002,-17.91953 -0.10487,-0.27327 -1.97995,-1.46144 -4.16686,-2.64037 -11.46706,-6.18172 -26.17075,-17.68379 -35.13089,-27.48139 -21.13628,-23.11178 -33.45287,-49.1644 -37.84866,-80.05923 -0.92878,-6.52775 -1.07279,-29.25744 -0.22446,-35.42711 3.96853,-28.86185 13.573,-51.70638 31.00141,-73.73784 4.30056,-5.43639 16.17252,-17.34806 21.60117,-21.67342 15.49917,-12.34921 31.27542,-20.69022 49.63916,-26.24456 25.17057,-7.61315 54.11846,-7.95373 79.61123,-0.93664 l 3.60769,0.99305 3.43879,-5.83211 c 1.89134,-3.20767 6.738,-11.48604 10.77037,-18.39638 4.03236,-6.91035 7.65739,-12.91331 8.05562,-13.33991 0.70348,-0.7536 1.00009,-0.61478 10.44152,4.88666 5.34461,3.11426 9.71748,5.89478 9.71748,6.17893 0,0.28415 -4.53673,8.26012 -10.08161,17.72437 -5.54489,9.46425 -9.98008,17.37201 -9.85599,17.5728 0.12409,0.20078 1.46311,0.98953 2.97559,1.75277 6.72346,3.39285 16.0269,9.49883 23.34713,15.32304 6.04729,4.81143 17.2091,16.03552 22.27902,22.40334 16.68021,20.95037 26.64232,44.47994 30.52195,72.09007 0.91469,6.5096 1.04726,28.48009 0.20878,34.60323 -2.52235,18.41999 -6.77069,32.58537 -14.33131,47.78541 -18.5711,37.33575 -52.6923,65.07937 -92.74228,75.40786 -12.74967,3.28801 -23.35583,4.6061 -36.97562,4.59517 -13.14508,-0.0105 -22.3301,-1.16405 -35.73588,-4.48788 -4.24805,-1.05327 -7.79909,-1.8377 -7.89119,-1.74319 -0.0921,0.0945 -4.73917,8.05026 -10.32682,17.67944 -10.83227,18.66717 -12.00176,20.59716 -12.48099,20.59716 -0.16846,0 -4.56848,-2.47693 -9.77781,-5.50429 z m 64.58083,-52.68269 c 0.37287,-0.28321 15.90083,-27.11617 34.50659,-59.62878 41.68889,-72.84924 39.11426,-68.40519 39.77754,-68.65971 0.54083,-0.20754 19.27686,10.24414 19.75718,11.02131 0.13406,0.21692 -14.58804,26.29686 -32.71579,57.95541 -18.12776,31.65855 -33.08342,57.88541 -33.2348,58.28191 -0.39688,1.03945 1.57023,0.95387 7.73624,-0.33659 18.84128,-3.94319 34.58126,-11.24716 50.16065,-23.27649 5.09913,-3.9372 15.07104,-13.8779 19.30353,-19.24312 13.90318,-17.62402 22.31859,-37.83699 25.24859,-60.64454 0.90548,-7.04835 0.67884,-23.16575 -0.42865,-30.48379 -3.27378,-21.63242 -11.69126,-41.12156 -24.84013,-57.51279 -3.48126,-4.3397 -7.49199,-8.73812 -8.11787,-8.90258 -0.55521,-0.14588 -115.79444,197.92445 -115.40452,198.35444 0.56751,0.62584 6.67007,1.88596 16.0832,3.32104 0.56642,0.0863 1.13345,0.18225 1.26008,0.21311 0.12662,0.0309 0.53529,-0.17562 0.90816,-0.45883 z m -20.69398,-46.24063 c 10.92355,-18.80521 23.15061,-39.84521 27.17124,-46.75556 72.00903,-123.76337 72.17397,-124.05133 71.39777,-124.64913 -3.01538,-2.3223 -13.88652,-8.17991 -14.63963,-7.88816 -0.43591,0.16887 -18.00127,29.95641 -64.79516,109.88042 -3.64791,6.23064 -17.49733,29.86588 -30.77648,52.52276 -13.27914,22.65688 -24.20478,41.45036 -24.27919,41.7633 -0.27459,1.1548 14.96229,10.47839 15.75493,9.6406 0.16804,-0.17762 9.24298,-15.70902 20.16652,-34.51423 z m -37.42755,-19.25835 c 59.47236,-101.41177 98.07006,-167.33541 98.25395,-167.81462 0.30997,-0.80777 -1.34163,-1.31539 -7.9034,-2.42916 -4.58032,-0.77744 -5.91556,-0.87732 -6.48806,-0.48533 -0.39647,0.27147 -17.84493,28.19936 -38.77436,62.06199 -20.92943,33.86263 -38.22141,61.62438 -38.42661,61.69279 -0.49347,0.16449 -18.71703,-11.08813 -19.19799,-11.8543 -0.27206,-0.43341 3.38488,-6.6688 13.51551,-23.04508 7.63868,-12.348 17.78418,-28.75364 22.54557,-36.45698 4.76138,-7.70333 10.83405,-17.52818 13.49482,-21.83299 2.66077,-4.3048 7.98974,-12.92471 11.84217,-19.15536 8.03884,-13.00146 7.9599,-12.10935 0.96705,-10.92835 -31.68338,5.35088 -59.92873,23.60734 -78.41057,50.68087 -18.01457,26.38905 -24.53521,59.37426 -18.03775,91.24543 2.90609,14.25483 9.16527,29.19137 17.43517,41.60626 3.71248,5.57323 11.44121,15.2419 12.18373,15.2419 0.14918,0 7.79952,-12.83718 17.00077,-28.52707 z m 289.97922,-6.72831 c -2.53969,-0.68294 -6.85307,-3.16245 -7.45366,-4.28467 -0.32194,-0.60155 -0.0285,-1.26537 1.44312,-3.2644 1.92808,-2.61911 2.60485,-2.96732 3.54927,-1.82615 0.90686,1.0958 5.23248,2.95628 7.54513,3.24523 2.73393,0.34158 5.38977,-0.36462 6.23763,-1.65862 1.48429,-2.26531 -0.08,-3.54127 -6.33447,-5.16684 -7.78848,-2.02428 -10.73527,-4.15742 -11.61293,-8.40647 -0.92362,-4.47154 1.18575,-8.40941 5.69391,-10.62964 2.52548,-1.24377 3.02525,-1.3416 6.85329,-1.3416 2.88102,0 4.81402,0.2259 6.39485,0.74735 2.66749,0.8799 6.17721,3.12522 6.17835,3.95256 4.1e-4,0.31926 -0.74671,1.57054 -1.66032,2.78062 -1.69324,2.24268 -2.76129,2.70624 -3.68124,1.59777 -0.88754,-1.06942 -4.8559,-2.28124 -7.47042,-2.28124 -2.73038,0 -3.82612,0.40946 -4.50868,1.68484 -0.75311,1.40721 0.46141,2.71901 3.21482,3.47229 7.55956,2.06817 10.2717,3.09959 11.96767,4.55127 2.40567,2.05917 3.10399,3.56495 3.13931,6.76933 0.0537,4.86843 -2.81877,8.63712 -7.68438,10.08205 -2.66535,0.79152 -8.82569,0.77917 -11.81125,-0.0237 z m 64.81649,0.0653 c -4.5041,-1.48318 -8.30605,-4.588 -10.20367,-8.33278 -2.05885,-4.06297 -2.42774,-9.81843 -0.90685,-14.14916 1.66405,-4.7384 5.92267,-8.78657 10.84165,-10.30589 8.55079,-2.64108 17.80213,1.23531 21.43217,8.98023 1.00555,2.14541 1.10405,2.79723 1.10405,7.3075 0,4.75987 -0.0522,5.05805 -1.34611,7.68632 -1.7255,3.50501 -5.30591,6.90585 -8.62926,8.19654 -2.94004,1.14181 -9.67231,1.47987 -12.29198,0.61724 z m 7.96447,-6.48811 c 2.44283,-0.61511 5.45599,-3.51643 6.17841,-5.94901 0.63262,-2.13034 0.64856,-5.96359 0.0334,-8.01712 -1.57033,-5.24118 -8.05098,-7.87873 -13.21559,-5.37858 -7.56168,3.66053 -6.73907,16.72217 1.20691,19.16441 2.46881,0.7588 3.38617,0.78733 5.79694,0.1803 z m -48.73587,6.1639 c -0.11242,-0.29297 -0.15584,-7.76184 -0.0965,-16.59748 l 0.10792,-16.0648 8.41229,-0.11174 c 10.24926,-0.13614 11.83026,0.19573 14.84129,3.11537 3.03174,2.93973 3.97698,6.7862 2.71067,11.03066 -0.81936,2.74641 -2.65316,4.84118 -5.42546,6.19754 -2.07597,1.01567 -2.85865,1.14753 -7.80725,1.31537 l -5.49998,0.18653 -0.11426,5.61086 -0.11426,5.61087 -3.40503,0.11975 c -2.49388,0.0877 -3.45973,-0.0228 -3.60944,-0.41293 z m 16.70338,-18.66047 c 2.241,-1.15887 2.75548,-3.86869 1.09991,-5.7934 -1.02769,-1.19476 -3.24985,-1.75374 -7.15063,-1.79873 -3.42008,-0.0395 -3.43222,-0.025 -3.43222,4.07029 0,1.97711 0.12358,3.71834 0.27463,3.86938 0.56915,0.56916 7.97621,0.2896 9.20831,-0.34754 z m 51.26728,18.66047 c -0.11246,-0.29297 -0.15588,-7.76184 -0.0965,-16.59748 l 0.10793,-16.0648 9.06275,0 c 10.25001,0 11.69276,0.29566 14.33472,2.93764 2.04686,2.04686 2.89979,4.02883 3.09242,7.18597 0.13095,2.14578 -0.0255,3.15222 -0.75304,4.84333 -0.9136,2.12371 -2.91042,4.25923 -4.77846,5.11036 -0.53853,0.24537 -0.97914,0.62072 -0.97914,0.83411 0,0.21338 1.49416,2.87117 3.32038,5.90619 1.82623,3.03502 3.20558,5.70398 3.06527,5.93102 -0.42455,0.68691 -7.45761,0.51783 -8.17188,-0.19645 -0.33512,-0.3351 -1.49169,-2.23518 -2.5702,-4.22242 -3.76067,-6.92929 -3.60792,-6.76249 -6.06351,-6.62063 l -2.14433,0.12387 -0.20597,5.56123 -0.20598,5.56124 -3.40504,0.11975 c -2.49386,0.0877 -3.4597,-0.0228 -3.6094,-0.41293 z m 17.76147,-19.40008 c 1.29552,-1.50742 1.31265,-3.57634 0.0418,-5.05379 -1.02772,-1.19476 -3.24986,-1.75374 -7.15064,-1.79873 -3.42007,-0.0395 -3.43222,-0.025 -3.43222,4.07029 0,1.97711 0.13874,3.73352 0.30834,3.90311 0.16959,0.1696 2.31784,0.24684 4.77388,0.17165 4.30646,-0.13185 4.50085,-0.17788 5.45883,-1.29253 z m 20.62933,19.6246 c -0.15106,-0.15104 -0.27464,-6.0795 -0.27464,-13.17433 l 0,-12.89971 -0.92687,-0.2139 c -0.50978,-0.11765 -2.59524,-0.26021 -4.63436,-0.31681 l -3.70749,-0.1029 0,-3.08958 0,-3.08957 12.72076,-0.10902 c 9.26123,-0.0794 12.879,0.0223 13.30252,0.3738 0.4187,0.34747 0.548,1.24406 0.46141,3.19859 l -0.12032,2.71578 -3.70749,0.1029 c -2.03912,0.0566 -4.12459,0.19916 -4.63437,0.31681 l -0.92687,0.2139 0,12.68 c 0,9.31297 -0.13124,12.81127 -0.49433,13.17434 -0.52288,0.52286 -6.56666,0.71099 -7.05795,0.2197 z M 480.29669,378.57818 c -0.10842,-0.28321 -0.14894,-10.43246 -0.0901,-22.55389 l 0.10707,-22.03896 6.83312,-0.11264 6.83314,-0.11265 0.68009,1.55445 c 0.37405,0.85494 2.69236,6.73527 5.15179,13.06738 2.45944,6.33212 4.6462,11.5711 4.85947,11.64219 0.21326,0.0711 2.59163,-5.57317 5.28526,-12.5428 2.69364,-6.96962 5.07338,-12.90376 5.28834,-13.18697 0.28468,-0.3751 2.22391,-0.51493 7.14095,-0.51493 l 6.75016,0 -0.10652,22.55389 -0.1065,22.55389 -4.73735,0 -4.73734,0 -0.10843,-14.40285 c -0.0596,-7.92157 -0.25229,-14.54672 -0.42812,-14.72256 -0.17584,-0.17583 -2.88529,6.24848 -6.021,14.27624 -3.14658,8.05557 -5.96942,14.69882 -6.29965,14.82554 -1.10442,0.4238 -3.72126,0.23487 -4.1658,-0.30077 -0.24209,-0.29171 -2.78574,-6.54809 -5.65255,-13.90308 -2.86682,-7.355 -5.46463,-13.83615 -5.77293,-14.40257 -0.48193,-0.88543 -0.56285,0.99508 -0.57703,13.40875 -0.0122,10.6618 -0.1458,14.56791 -0.51083,14.93294 -0.70299,0.703 -9.34537,0.68448 -9.61528,-0.0206 z m 76.09757,-0.0102 c -0.25145,-0.30301 -0.51069,-2.39429 -0.57606,-4.64728 l -0.11889,-4.09634 -10.27885,-0.11036 c -7.59285,-0.0815 -10.36305,-0.243 -10.60119,-0.61792 -0.17734,-0.27915 -0.32527,-1.8589 -0.32873,-3.51055 -0.005,-2.20014 0.20992,-3.41161 0.80254,-4.53138 0.44486,-0.8406 4.48232,-7.27498 8.97209,-14.29861 l 8.16319,-12.77024 6.88205,-0.11292 6.882,-0.11292 0.10872,13.2951 0.10871,13.29511 1.85374,0.10863 c 3.93839,0.23081 3.75128,-0.0145 3.6188,4.74313 l -0.11728,4.21099 -2.33444,0.12252 c -1.28395,0.0674 -2.5281,0.35583 -2.76476,0.64099 -0.23666,0.28515 -0.48374,2.36183 -0.54912,4.61482 l -0.11889,4.09636 -4.57318,0.1159 c -3.42927,0.0869 -4.68759,-0.0219 -5.03045,-0.43501 z m -0.48898,-26.13351 c 0,-6.98809 -0.0808,-8.03701 -0.57906,-7.51797 -0.44157,0.45999 -7.96501,11.99152 -9.86741,15.12421 -0.24387,0.40162 0.8711,0.51493 5.06691,0.51493 l 5.37956,0 0,-8.12117 z"
         id="path4157"
         inkscape:connector-curvature="0" />
      <path
         style="fill:#ed5e5e"
         d="m 188.24274,550.72441 c -5.20933,-3.02735 -9.5268,-5.78384 -9.59438,-6.12553 -0.0676,-0.34169 4.42775,-8.44738 9.98963,-18.01262 5.56186,-9.56526 10.11249,-17.63361 10.11249,-17.92968 0,-0.29608 -1.90009,-1.60891 -4.22242,-2.91741 -27.18459,-15.31696 -49.09195,-39.34955 -61.51962,-67.48764 -13.69464,-31.00673 -16.06017,-65.38597 -6.75922,-98.23466 2.35699,-8.32429 4.96393,-14.99362 9.28163,-23.7451 7.72141,-15.65043 16.45753,-27.67503 28.8872,-39.76099 22.71513,-22.087 50.07178,-35.2834 82.52979,-39.81102 6.52648,-0.91038 28.1245,-1.04716 34.19129,-0.21652 7.07329,0.96844 13.2977,2.13975 19.30033,3.63194 3.25169,0.80834 6.06662,1.3125 6.25539,1.12034 0.18877,-0.19215 5.17398,-8.5909 11.07825,-18.66388 5.90427,-10.07299 10.99847,-18.57796 11.32044,-18.89994 0.50591,-0.50591 1.90468,0.18333 10.30082,5.07568 5.34347,3.1136 9.71541,5.89358 9.71541,6.17773 0,0.28415 -4.54168,8.26857 -10.09261,17.74315 -5.55094,9.47457 -10.09261,17.3627 -10.09261,17.52917 0,0.16647 1.62202,1.18318 3.6045,2.25936 38.5196,20.91009 65.21592,56.75679 73.60235,98.83015 2.23932,11.23427 2.50539,14.31293 2.49215,28.83603 -0.0129,14.10621 -0.34173,17.83599 -2.52447,28.63005 -11.75963,58.15354 -59.00411,103.66888 -117.54497,113.24286 -9.07078,1.48346 -13.99348,1.86548 -23.89271,1.85414 -13.95151,-0.016 -24.71736,-1.42738 -37.8306,-4.95955 -3.06869,-0.82658 -5.64485,-1.32224 -5.83698,-1.12306 -0.18915,0.1961 -4.91316,8.23495 -10.49779,17.86413 -10.82058,18.65715 -11.99562,20.59716 -12.47548,20.59716 -0.16846,0 -4.56848,-2.47693 -9.77781,-5.50429 z m 65.45873,-53.71255 c 0.54897,-0.84963 15.68551,-27.21915 33.63676,-58.59892 40.98486,-71.64382 39.10983,-68.40659 39.76782,-68.65908 0.54194,-0.20796 19.2776,10.24203 19.75883,11.02068 0.13406,0.21692 -14.61795,26.34781 -32.78225,58.06865 -18.16429,31.72083 -33.12174,58.04037 -33.23877,58.48788 -0.29576,1.13098 0.86401,1.07502 7.94102,-0.38316 11.36695,-2.3421 20.4022,-5.52752 30.87094,-10.88371 22.74753,-11.63846 41.93505,-31.35954 52.97522,-54.44833 14.3879,-30.09002 15.62543,-64.47955 3.443,-95.67737 -2.21094,-5.66196 -6.74959,-14.67032 -9.90861,-19.66673 -4.81575,-7.61673 -14.67709,-19.77327 -16.04001,-19.77327 -0.74965,0 -116.14042,198.32637 -115.66224,198.79297 0.74386,0.72586 13.15159,3.15298 16.49526,3.2267 1.58172,0.0349 1.83826,-0.106 2.74303,-1.50631 z M 232.59873,450.9772 c 11.32371,-19.48491 23.60906,-40.6176 27.3008,-46.96152 43.73062,-75.14732 71.49668,-123.02393 71.49668,-123.28069 0,-0.4484 -6.07591,-4.20924 -10.8795,-6.73415 l -4.08244,-2.14585 -0.70871,0.87522 c -0.58358,0.7207 -24.22953,40.94597 -64.4614,109.65845 -3.64811,6.23064 -17.50304,29.87316 -30.78874,52.53892 -13.28571,22.66577 -24.27172,41.5125 -24.41337,41.88163 -0.19215,0.50074 0.53855,1.20834 2.87787,2.78689 4.22925,2.85387 11.83189,7.05671 12.51657,6.91932 0.30453,-0.0611 9.81854,-16.0533 21.14224,-35.53822 z m -37.89669,-18.43446 c 80.75253,-137.69853 98.12136,-167.457 98.14746,-168.15857 0.0249,-0.66927 -0.48384,-0.9273 -2.98728,-1.51513 -5.01589,-1.17777 -10.33698,-1.81482 -11.10615,-1.32964 -0.37294,0.23524 -17.85501,28.21007 -38.84903,62.16627 -20.99403,33.95621 -38.33872,61.79448 -38.54377,61.86283 -0.49328,0.16443 -18.71691,-11.08849 -19.1977,-11.85439 -0.27207,-0.43341 3.38508,-6.66869 13.51652,-23.04508 7.63923,-12.348 17.26741,-27.91945 21.39597,-34.60323 4.12855,-6.68378 10.43127,-16.87937 14.00605,-22.65688 15.78939,-25.5186 19.57122,-31.69496 19.57122,-31.96308 0,-0.84639 -12.65928,1.54255 -20.18522,3.80916 -41.91625,12.62405 -74.01559,47.68341 -82.77095,90.40363 -1.7945,8.75591 -2.25293,13.76719 -2.23801,24.46434 0.0118,8.45949 0.17576,11.36525 0.91815,16.27176 2.61009,17.25005 8.20183,32.57294 17.10888,46.883 4.26149,6.8465 12.87015,17.79208 13.99341,17.79208 0.27,0 8.0192,-12.83718 17.22045,-28.52707 z m 292.40872,-6.55463 c -3.03378,-0.42689 -7.05296,-2.16605 -8.79129,-3.80411 -1.14837,-1.08214 -1.15702,-1.12382 -0.46042,-2.2206 1.37158,-2.15952 2.70647,-3.7954 3.09709,-3.7954 0.217,0 1.14782,0.54567 2.0685,1.2126 4.674,3.38583 12.33303,3.45851 13.59889,0.12904 0.32992,-0.86774 0.25729,-1.30558 -0.35547,-2.14297 -0.77516,-1.05933 -1.78824,-1.45311 -10.09404,-3.92359 -2.93297,-0.87238 -3.95439,-1.40202 -5.41797,-2.80943 -4.67452,-4.49509 -2.92346,-11.99639 3.46648,-14.84993 2.35969,-1.05376 7.88678,-1.39817 11.0744,-0.69008 3.53003,0.78416 7.46767,3.02229 7.46767,4.24458 0,0.75594 -2.96326,4.41177 -3.57599,4.41177 -0.34223,0 -1.11428,-0.34882 -1.71568,-0.77515 -3.02177,-2.14213 -8.9332,-2.82105 -10.92453,-1.25467 -0.73318,0.57672 -1.08541,1.2471 -1.08541,2.06577 0,1.59469 1.50083,2.503 6.00054,3.63156 7.53457,1.88973 10.60924,3.76213 11.95219,7.27861 1.23927,3.24496 0.14091,8.04684 -2.36179,10.32545 -1.68579,1.53485 -4.38892,2.63333 -7.46266,3.03261 -1.63845,0.21283 -3.16437,0.36982 -3.39094,0.34885 -0.22657,-0.021 -1.61687,-0.20768 -3.08957,-0.41491 z m 64.49095,0.0406 c -3.03989,-0.50859 -7.7545,-2.99913 -9.52544,-5.0319 -0.83341,-0.95659 -2.09469,-2.94418 -2.80291,-4.41688 -1.20188,-2.49934 -1.28761,-2.97936 -1.28761,-7.20901 0,-4.21012 0.0901,-4.7212 1.27146,-7.209 1.67839,-3.53446 4.44178,-6.31599 7.90466,-7.95642 2.61432,-1.23844 3.03689,-1.31231 7.50758,-1.31231 3.95684,0 5.11366,0.15238 7.02154,0.92486 3.23243,1.3088 6.66602,4.50538 8.20726,7.64068 5.28104,10.74321 -0.72819,22.70363 -12.34519,24.57116 -2.98004,0.47907 -3.08101,0.47904 -5.95135,-0.001 z m 7.39669,-6.9215 c 3.72525,-1.69235 5.78624,-5.62995 5.47127,-10.45317 -0.40614,-6.21987 -3.95655,-9.78767 -9.73995,-9.78767 -4.94229,0 -8.53719,3.10732 -9.57241,8.27411 -0.92905,4.63692 1.26034,9.85717 4.94258,11.78464 2.31277,1.21062 6.44819,1.29525 8.89851,0.18208 z m -50.27191,6.03668 c -0.11263,-0.29352 -0.15617,-7.57731 -0.0967,-16.18621 l 0.10804,-15.65255 9.4747,0 c 8.45431,0 9.62997,0.0827 10.91649,0.76793 3.38387,1.8023 5.3137,4.69427 5.65273,8.47097 0.40383,4.49794 -1.55962,8.24453 -5.3399,10.18947 -1.9565,1.00661 -2.72576,1.13728 -7.93378,1.34771 l -5.7672,0.23303 -0.20598,5.56123 -0.20597,5.56123 -3.19879,0.12043 c -2.32888,0.0877 -3.25449,-0.0247 -3.40359,-0.41324 z m 16.47489,-17.80023 c 2.78843,-1.16508 3.42685,-4.78324 1.21162,-6.86662 -0.99104,-0.93205 -1.3496,-0.99276 -5.86389,-0.99276 l -4.80829,0 -0.12005,3.67489 c -0.066,2.02119 -0.0255,3.92127 0.0901,4.22242 0.29885,0.77878 7.60578,0.74957 9.49056,-0.0379 z m 51.71301,1.99941 0,-16.2996 9.37171,0.13083 c 10.59102,0.14785 11.27287,0.31928 14.21274,3.57336 1.72629,1.9108 2.36246,3.84117 2.36567,7.17824 0.004,3.83077 -1.8072,6.93584 -4.99284,8.56103 -0.87776,0.4478 -1.59595,0.97685 -1.59595,1.17565 0,0.19881 1.46862,2.83127 3.26358,5.84992 1.79496,3.01866 3.17431,5.63285 3.06523,5.80932 -0.10904,0.17647 -1.83566,0.32086 -3.83692,0.32086 l -3.63865,0 -2.77391,-5.04631 c -1.52563,-2.77547 -3.0574,-5.37071 -3.40392,-5.7672 -0.85285,-0.97588 -4.82736,-1.02889 -5.1956,-0.0693 -0.13755,0.35839 -0.25005,2.95363 -0.25005,5.76721 l 0,5.1156 -3.29554,0 -3.29555,0 0,-16.29961 z m 16.4732,-2.02952 c 2.72216,-1.40769 3.27903,-4.23947 1.275,-6.48395 l -1.20114,-1.34532 -4.6213,-0.1409 c -3.53806,-0.10787 -4.70341,-0.0113 -4.97166,0.41194 -0.40095,0.63262 -0.48968,6.5405 -0.11296,7.52219 0.34925,0.91018 7.88711,0.93839 9.63206,0.036 z m 22.03843,17.83164 c -0.10917,-0.29281 -0.2454,-6.18629 -0.3027,-13.09664 l -0.10418,-12.56427 -4.53137,-0.20597 -4.53138,-0.20597 -0.12115,-2.99249 -0.12115,-2.99248 12.89139,0.10888 12.89139,0.10888 0.12153,2.76812 c 0.14323,3.26231 0.33441,3.14684 -5.47679,3.30813 l -3.70749,0.1029 -0.20597,12.97621 -0.20597,12.97621 -3.19878,0.12043 c -2.32724,0.0876 -3.25291,-0.0246 -3.39738,-0.41194 z M 480.71399,378.18025 c -0.11138,-0.29091 -0.15433,-10.35379 -0.0954,-22.36193 l 0.10708,-21.83299 6.22305,-0.1134 c 5.34395,-0.0974 6.30188,-0.0184 6.78105,0.55895 0.3069,0.36979 2.79709,6.4325 5.53377,13.4727 2.73667,7.0402 5.16463,12.86331 5.39546,12.94026 0.23083,0.0769 2.70308,-5.74937 5.49388,-12.94737 2.79081,-7.19799 5.25884,-13.31897 5.48451,-13.60218 0.61185,-0.76787 12.39191,-0.72572 13.0329,0.0466 0.33685,0.40587 0.43648,6.60157 0.3594,22.34792 l -0.10666,21.78636 -4.49801,0.11763 c -3.32127,0.0869 -4.58592,-0.0209 -4.83403,-0.41195 -0.1848,-0.29126 -0.33885,-7.19378 -0.34232,-15.33893 -0.004,-9.07643 -0.15377,-14.65786 -0.38723,-14.41801 -0.2095,0.21524 -2.69237,6.32333 -5.51748,13.57353 -2.8251,7.2502 -5.45444,13.97002 -5.84296,14.93294 -0.69428,1.72073 -0.74053,1.75076 -2.69707,1.75076 -1.09487,0 -2.12357,-0.21503 -2.28599,-0.47784 -0.16243,-0.26281 -2.83184,-6.97282 -5.93203,-14.91112 -3.10018,-7.9383 -5.8492,-14.50412 -6.10893,-14.59069 -0.34794,-0.11598 -0.50071,3.78175 -0.5804,14.80813 l -0.10816,14.96555 -4.43594,0.117 c -3.31862,0.0875 -4.48695,-0.0162 -4.63846,-0.41195 z m 75.87788,0.22629 c -0.15106,-0.15104 -0.27464,-2.19016 -0.27464,-4.53138 l 0,-4.25674 -10.2162,0 c -7.39668,0 -10.35262,-0.13643 -10.71052,-0.49433 -0.3013,-0.30132 -0.49433,-1.76909 -0.49433,-3.75905 l 0,-3.26471 8.86308,-13.91286 c 4.87469,-7.65208 9.15346,-14.0243 9.50839,-14.16049 0.35493,-0.13619 3.21884,-0.24762 6.36432,-0.24762 5.23263,0 5.7553,0.0678 6.14545,0.7968 0.26772,0.50021 0.42645,5.56039 0.42645,13.59413 l 0,12.79732 2.45715,0 c 2.99397,0 3.31005,0.41307 3.31005,4.3254 0,3.91234 -0.31608,4.32541 -3.31005,4.32541 l -2.45715,0 0,3.87977 c 0,2.13387 -0.11251,4.17299 -0.25005,4.53137 -0.20651,0.53814 -1.01948,0.65161 -4.66868,0.65161 -2.43026,0 -4.54225,-0.12358 -4.69327,-0.27463 z m -0.36914,-26.22988 c 0.0749,-5.77414 -0.028,-8.5385 -0.3144,-8.44303 -0.62582,0.20861 -11.09721,16.53459 -10.85573,16.92526 0.11291,0.18271 2.64731,0.28057 5.63196,0.21747 l 5.4267,-0.11472 0.11147,-8.58498 z"
         id="path4155"
         inkscape:connector-curvature="0" />
      <path
         style="fill:#5f5f5f"
         d="m 188.74741,550.49932 c -4.93526,-2.89036 -9.17832,-5.46031 -9.42901,-5.711 -0.33311,-0.33311 2.20519,-5.03667 9.42971,-17.47355 5.43703,-9.35976 10.08667,-17.40301 10.33252,-17.87389 0.41283,-0.79067 0.0944,-1.05616 -4.16399,-3.47144 -27.79143,-15.76291 -49.40156,-39.40102 -61.9082,-67.71791 -13.69464,-31.00673 -16.06017,-65.38597 -6.75922,-98.23466 2.35699,-8.32429 4.96393,-14.99362 9.28163,-23.7451 7.72141,-15.65043 16.45753,-27.67503 28.8872,-39.76099 22.71532,-22.08718 50.03659,-35.26722 82.52979,-39.81314 7.33987,-1.02687 28.49918,-1.02687 35.83906,0 6.17075,0.86331 15.74211,2.78729 20.6722,4.15542 l 3.57655,0.9925 11.18714,-19.11497 c 10.66766,-18.22735 11.22848,-19.09336 12.0773,-18.64971 1.86994,0.97739 16.99349,9.80578 17.7374,10.35423 0.74006,0.54562 0.24232,1.4962 -9.39531,17.94314 -5.59723,9.55184 -10.07097,17.5382 -9.94164,17.74746 0.12933,0.20926 1.85467,1.25961 3.83408,2.33411 38.51346,20.90663 65.21088,56.75642 73.59678,98.82712 2.23932,11.23427 2.50539,14.31293 2.49215,28.83603 -0.0129,14.10621 -0.34173,17.83599 -2.52447,28.63005 -11.75963,58.15354 -59.00411,103.66888 -117.54497,113.24286 -9.06855,1.4831 -13.99255,1.86545 -23.89271,1.8553 -14.82379,-0.0152 -27.28779,-1.78998 -41.25738,-5.87472 l -2.74069,-0.80138 -11.2171,19.32084 c -6.1694,10.62646 -11.33151,19.30683 -11.47136,19.28972 -0.13984,-0.0171 -4.29219,-2.39596 -9.22746,-5.28632 z M 290.23751,434.2935 c 20.24858,-35.34472 36.94614,-64.26314 37.10569,-64.26314 0.15955,0 4.42714,2.39207 9.48354,5.31571 6.88782,3.98257 9.18784,5.5081 9.17109,6.08286 -0.0123,0.42194 -14.79298,26.55472 -32.84595,58.07285 -18.05297,31.51813 -32.93904,57.60656 -33.08015,57.9743 -0.38726,1.00918 1.93515,0.8684 8.71315,-0.52817 11.36695,-2.3421 20.4022,-5.52752 30.87094,-10.88371 22.74753,-11.63846 41.93505,-31.35954 52.97522,-54.44833 12.88651,-26.95008 15.28629,-57.88988 6.69261,-86.28603 -4.31249,-14.24977 -11.77083,-28.51656 -20.81848,-39.82289 -3.56307,-4.45257 -8.3086,-9.62774 -8.82414,-9.62304 -0.28851,0.002 -56.55058,96.46619 -108.67014,186.31927 -5.6039,9.66101 -7.24626,12.80269 -6.82797,13.06121 1.42633,0.88152 13.53597,3.17862 17.1348,3.25033 l 2.10419,0.0419 36.8156,-64.26315 z m -18.27374,-50.0957 c 32.88136,-56.55344 59.70101,-103.04146 59.59922,-103.30671 -0.25827,-0.67305 -6.12264,-4.31137 -11.33976,-7.03532 -3.37174,-1.76044 -4.46963,-2.16601 -4.78424,-1.76736 -0.22458,0.28456 -27.32468,46.45702 -60.22245,102.60546 -47.32917,80.77933 -59.71575,102.2066 -59.34285,102.65591 1.03843,1.25124 14.99078,9.63922 16.07939,9.66673 0.12452,0.003 27.12933,-46.26527 60.01069,-102.81871 z m -35.71128,-21.58242 c 31.53662,-53.81008 57.42189,-98.04554 57.52282,-98.30101 0.29496,-0.74663 -10.35274,-3.0352 -14.12725,-3.03646 l -1.69704,-5.6e-4 -15.97552,25.84944 c -50.75832,82.13028 -60.49077,97.73353 -60.96079,97.73353 -0.87655,0 -18.53944,-11.14788 -18.48427,-11.66629 0.0285,-0.26732 15.46087,-25.3986 34.29428,-55.84728 18.8334,-30.44868 34.24255,-55.54738 34.24255,-55.77488 0,-0.59553 -4.32417,-0.11776 -10.57185,1.16806 -46.36326,9.54194 -83.28556,46.51295 -92.79626,92.9187 -1.7945,8.75591 -2.25293,13.76719 -2.23801,24.46434 0.0118,8.45949 0.17576,11.36525 0.91815,16.27176 2.6155,17.28581 8.19528,32.55868 17.15689,46.96152 2.9857,4.79853 8.79541,12.53832 11.89576,15.84772 2.01593,2.15187 2.37781,2.38377 2.89271,1.85374 0.32368,-0.3332 26.3912,-44.63224 57.92783,-98.44233 z m 250.85827,63.37273 c -3.03378,-0.42689 -7.05296,-2.16605 -8.79129,-3.80411 -1.14837,-1.08214 -1.15702,-1.12382 -0.46042,-2.2206 1.37158,-2.15952 2.70647,-3.7954 3.09709,-3.7954 0.217,0 1.14782,0.54567 2.0685,1.2126 4.674,3.38583 12.33303,3.45851 13.59889,0.12904 0.32992,-0.86774 0.25729,-1.30558 -0.35547,-2.14297 -0.77516,-1.05933 -1.78824,-1.45311 -10.09404,-3.92359 -2.93297,-0.87238 -3.95439,-1.40202 -5.41797,-2.80943 -4.67452,-4.49509 -2.92346,-11.99639 3.46648,-14.84993 2.35969,-1.05376 7.88678,-1.39817 11.0744,-0.69008 3.53003,0.78416 7.46767,3.02229 7.46767,4.24458 0,0.75594 -2.96326,4.41177 -3.57599,4.41177 -0.34223,0 -1.11428,-0.34882 -1.71568,-0.77515 -3.02177,-2.14213 -8.9332,-2.82105 -10.92453,-1.25467 -0.73318,0.57672 -1.08541,1.2471 -1.08541,2.06577 0,1.59469 1.50083,2.503 6.00054,3.63156 7.53457,1.88973 10.60924,3.76213 11.95219,7.27861 1.23927,3.24496 0.14091,8.04684 -2.36179,10.32545 -1.68579,1.53485 -4.38892,2.63333 -7.46266,3.03261 -1.63845,0.21283 -3.16437,0.36982 -3.39094,0.34885 -0.22657,-0.021 -1.61687,-0.20768 -3.08957,-0.41491 z m 64.49095,0.0406 c -3.03989,-0.50859 -7.7545,-2.99913 -9.52544,-5.0319 -0.83341,-0.95659 -2.09469,-2.94418 -2.80291,-4.41688 -1.20188,-2.49934 -1.28761,-2.97936 -1.28761,-7.20901 0,-4.21012 0.0901,-4.7212 1.27146,-7.209 1.67839,-3.53446 4.44178,-6.31599 7.90466,-7.95642 2.61432,-1.23844 3.03689,-1.31231 7.50758,-1.31231 3.95684,0 5.11366,0.15238 7.02154,0.92486 3.23243,1.3088 6.66602,4.50538 8.20726,7.64068 5.28104,10.74321 -0.72819,22.70363 -12.34519,24.57116 -2.98004,0.47907 -3.08101,0.47904 -5.95135,-0.001 z m 7.39669,-6.9215 c 3.72525,-1.69235 5.78624,-5.62995 5.47127,-10.45317 -0.40614,-6.21987 -3.95655,-9.78767 -9.73995,-9.78767 -4.94229,0 -8.53719,3.10732 -9.57241,8.27411 -0.92905,4.63692 1.26034,9.85717 4.94258,11.78464 2.31277,1.21062 6.44819,1.29525 8.89851,0.18208 z m -50.27191,6.03668 c -0.11263,-0.29352 -0.15617,-7.57731 -0.0967,-16.18621 l 0.10804,-15.65255 9.4747,0 c 8.45431,0 9.62997,0.0827 10.91649,0.76793 3.38387,1.8023 5.3137,4.69427 5.65273,8.47097 0.40383,4.49794 -1.55962,8.24453 -5.3399,10.18947 -1.9565,1.00661 -2.72576,1.13728 -7.93378,1.34771 l -5.7672,0.23303 -0.20598,5.56123 -0.20597,5.56123 -3.19879,0.12043 c -2.32888,0.0877 -3.25449,-0.0247 -3.40359,-0.41324 z m 16.47489,-17.80023 c 2.78843,-1.16508 3.42685,-4.78324 1.21162,-6.86662 -0.99104,-0.93205 -1.3496,-0.99276 -5.86389,-0.99276 l -4.80829,0 -0.12005,3.67489 c -0.066,2.02119 -0.0255,3.92127 0.0901,4.22242 0.29885,0.77878 7.60578,0.74957 9.49056,-0.0379 z m 51.71301,1.99941 0,-16.2996 9.37171,0.13083 c 10.59102,0.14785 11.27287,0.31928 14.21274,3.57336 1.72629,1.9108 2.36246,3.84117 2.36567,7.17824 0.004,3.83077 -1.8072,6.93584 -4.99284,8.56103 -0.87776,0.4478 -1.59595,0.97685 -1.59595,1.17565 0,0.19881 1.46862,2.83127 3.26358,5.84992 1.79496,3.01866 3.17431,5.63285 3.06523,5.80932 -0.10904,0.17647 -1.83566,0.32086 -3.83692,0.32086 l -3.63865,0 -2.77391,-5.04631 c -1.52563,-2.77547 -3.0574,-5.37071 -3.40392,-5.7672 -0.85285,-0.97588 -4.82736,-1.02889 -5.1956,-0.0693 -0.13755,0.35839 -0.25005,2.95363 -0.25005,5.76721 l 0,5.1156 -3.29554,0 -3.29555,0 0,-16.29961 z m 16.4732,-2.02952 c 2.72216,-1.40769 3.27903,-4.23947 1.275,-6.48395 l -1.20114,-1.34532 -4.6213,-0.1409 c -3.53806,-0.10787 -4.70341,-0.0113 -4.97166,0.41194 -0.40095,0.63262 -0.48968,6.5405 -0.11296,7.52219 0.34925,0.91018 7.88711,0.93839 9.63206,0.036 z m 22.03843,17.83164 c -0.10917,-0.29281 -0.2454,-6.18629 -0.3027,-13.09664 l -0.10418,-12.56427 -4.53137,-0.20597 -4.53138,-0.20597 -0.12115,-2.99249 -0.12115,-2.99248 12.89139,0.10888 12.89139,0.10888 0.12153,2.76812 c 0.14323,3.26231 0.33441,3.14684 -5.47679,3.30813 l -3.70749,0.1029 -0.20597,12.97621 -0.20597,12.97621 -3.19878,0.12043 c -2.32724,0.0876 -3.25291,-0.0246 -3.39738,-0.41194 z M 480.71399,378.18025 c -0.11138,-0.29091 -0.15433,-10.35379 -0.0954,-22.36193 l 0.10708,-21.83299 6.22305,-0.1134 c 5.34395,-0.0974 6.30188,-0.0184 6.78105,0.55895 0.3069,0.36979 2.79709,6.4325 5.53377,13.4727 2.73667,7.0402 5.16463,12.86331 5.39546,12.94026 0.23083,0.0769 2.70308,-5.74937 5.49388,-12.94737 2.79081,-7.19799 5.25884,-13.31897 5.48451,-13.60218 0.61185,-0.76787 12.39191,-0.72572 13.0329,0.0466 0.33685,0.40587 0.43648,6.60157 0.3594,22.34792 l -0.10666,21.78636 -4.49801,0.11763 c -3.32127,0.0869 -4.58592,-0.0209 -4.83403,-0.41195 -0.1848,-0.29126 -0.33885,-7.19378 -0.34232,-15.33893 -0.004,-9.07643 -0.15377,-14.65786 -0.38723,-14.41801 -0.2095,0.21524 -2.69237,6.32333 -5.51748,13.57353 -2.8251,7.2502 -5.45444,13.97002 -5.84296,14.93294 -0.69428,1.72073 -0.74053,1.75076 -2.69707,1.75076 -1.09487,0 -2.12357,-0.21503 -2.28599,-0.47784 -0.16243,-0.26281 -2.83184,-6.97282 -5.93203,-14.91112 -3.10018,-7.9383 -5.8492,-14.50412 -6.10893,-14.59069 -0.34794,-0.11598 -0.50071,3.78175 -0.5804,14.80813 l -0.10816,14.96555 -4.43594,0.117 c -3.31862,0.0875 -4.48695,-0.0162 -4.63846,-0.41195 z m 75.87788,0.22629 c -0.15106,-0.15104 -0.27464,-2.19016 -0.27464,-4.53138 l 0,-4.25674 -10.2162,0 c -7.39668,0 -10.35262,-0.13643 -10.71052,-0.49433 -0.3013,-0.30132 -0.49433,-1.76909 -0.49433,-3.75905 l 0,-3.26471 8.86308,-13.91286 c 4.87469,-7.65208 9.15346,-14.0243 9.50839,-14.16049 0.35493,-0.13619 3.21884,-0.24762 6.36432,-0.24762 5.23263,0 5.7553,0.0678 6.14545,0.7968 0.26772,0.50021 0.42645,5.56039 0.42645,13.59413 l 0,12.79732 2.45715,0 c 2.99397,0 3.31005,0.41307 3.31005,4.3254 0,3.91234 -0.31608,4.32541 -3.31005,4.32541 l -2.45715,0 0,3.87977 c 0,2.13387 -0.11251,4.17299 -0.25005,4.53137 -0.20651,0.53814 -1.01948,0.65161 -4.66868,0.65161 -2.43026,0 -4.54225,-0.12358 -4.69327,-0.27463 z m -0.36914,-26.22988 c 0.0749,-5.77414 -0.028,-8.5385 -0.3144,-8.44303 -0.62582,0.20861 -11.09721,16.53459 -10.85573,16.92526 0.11291,0.18271 2.64731,0.28057 5.63196,0.21747 l 5.4267,-0.11472 0.11147,-8.58498 z"
         id="path4153"
         inkscape:connector-curvature="0" />
      <path
         style="fill:#e10505"
         d="m 188.74741,550.49932 c -4.93526,-2.89036 -9.17789,-5.45988 -9.42805,-5.71004 -0.33185,-0.33184 2.29917,-5.19243 9.72853,-17.97267 5.60086,-9.63479 10.26599,-17.84933 10.36694,-18.25453 0.14322,-0.57483 -0.58997,-1.13738 -3.33682,-2.56019 -1.93621,-1.00291 -5.45575,-3.06096 -7.8212,-4.57344 -34.13643,-21.82698 -57.17268,-55.64377 -64.67445,-94.94089 -4.45203,-23.32142 -2.5597,-50.43599 5.0743,-72.7082 9.49366,-27.69778 26.75813,-51.45802 50.13656,-69.00049 20.46866,-15.35907 43.90978,-24.63669 70.42031,-27.87121 6.72351,-0.82034 26.11132,-0.70001 32.95546,0.20452 6.38061,0.84328 16.22515,2.80929 20.92341,4.17854 2.59783,0.7571 3.48853,0.87211 3.8443,0.4964 0.25468,-0.26896 5.41588,-8.96729 11.46932,-19.32963 10.48985,-17.95658 11.04799,-18.81881 11.89525,-18.37597 1.86875,0.97673 16.99252,9.8053 17.73622,10.35359 0.74006,0.54563 0.24364,1.49395 -9.37171,17.90286 -5.58425,9.5297 -10.15318,17.62005 -10.15318,17.97858 0,0.39156 1.11038,1.21218 2.78062,2.05501 13.23617,6.6792 28.28678,18.17758 38.88699,29.70892 22.12879,24.07261 34.84757,52.91263 37.87857,85.89016 0.94792,10.31348 0.095,27.2906 -1.92168,38.24964 -11.97601,65.08065 -67.88998,113.87807 -134.06072,116.99789 -15.91411,0.75033 -31.47934,-0.9587 -45.96428,-5.04676 -3.62651,-1.02351 -5.02904,-1.26479 -5.36317,-0.92268 -0.24884,0.2548 -5.41859,9.03684 -11.48832,19.51565 -6.06973,10.47881 -11.1493,19.03837 -11.28793,19.02126 -0.13864,-0.0171 -4.29,-2.39596 -9.22527,-5.28632 z m 64.45314,-51.71258 c 0.29939,-0.32658 17.0387,-29.43037 37.19845,-64.67508 20.15976,-35.24472 36.78465,-64.0813 36.9442,-64.0813 0.15954,0 4.42714,2.39207 9.48354,5.31571 6.88782,3.98257 9.18784,5.5081 9.17109,6.08286 -0.0123,0.42194 -14.8325,26.62372 -32.93378,58.22619 -18.10128,31.60247 -32.92117,57.82994 -32.9331,58.28327 -0.0187,0.71097 0.20474,0.80677 1.62609,0.6972 7.64726,-0.58953 22.08302,-4.72336 32.13158,-9.2012 20.30964,-9.05041 38.84838,-24.80453 51.07175,-43.4005 10.33228,-15.71899 16.32932,-31.76256 19.0169,-50.87499 1.10683,-7.8711 0.9994,-24.15826 -0.21194,-32.13157 -2.79442,-18.39352 -8.88773,-34.3883 -18.87787,-49.55387 -5.16527,-7.84117 -14.46023,-18.65741 -15.29548,-17.79885 -0.38865,0.3995 -114.34391,196.29423 -115.5948,198.71319 -0.53697,1.03839 -0.54148,1.23623 -0.0326,1.43152 1.331,0.51075 7.68598,1.88 11.54145,2.48673 5.0568,0.79578 6.045,0.94678 6.66465,1.01838 0.26703,0.0309 0.73046,-0.2111 1.02986,-0.53769 z m 18.96735,-114.86915 59.97037,-103.07294 -1.17168,-1.04045 c -1.33822,-1.18835 -6.09051,-4.06788 -11.1948,-6.78321 -3.28521,-1.74763 -3.52695,-1.81432 -4.11734,-1.13592 -1.09786,1.26151 -120.19952,204.78161 -120.19952,205.39611 0,1.10994 15.13949,10.32452 16.25795,9.89532 0.26656,-0.10228 27.47131,-46.56879 60.45502,-103.25891 z m -35.90663,-21.30221 c 31.54002,-53.81008 57.43161,-98.14722 57.53688,-98.52698 0.23332,-0.84171 -1.08726,-1.2585 -7.50973,-2.37019 -6.96896,-1.20629 -7.59315,-1.26239 -8.06683,-0.72504 -0.23764,0.26959 -7.75694,12.35412 -16.70956,26.85452 -46.97623,76.08655 -60.02589,97.01263 -60.49784,97.01263 -0.41785,0 -17.99577,-10.65143 -18.63834,-11.294 -0.0989,-0.0989 15.26992,-25.16106 34.15285,-55.69378 18.88293,-30.53272 34.47594,-55.87779 34.65114,-56.32238 0.30491,-0.77375 0.18149,-0.7972 -2.8836,-0.54791 -9.86749,0.80255 -24.54424,5.28725 -36.56955,11.17437 -11.93968,5.84521 -21.26932,12.60872 -31.53937,22.86445 -9.65614,9.64267 -15.87325,17.97572 -21.60705,28.96082 -8.69215,16.65284 -13.09549,33.47622 -13.66479,52.20762 -0.77063,25.35578 5.919,48.8285 19.94622,69.98771 3.0197,4.55504 7.94702,10.92265 11.00685,14.22422 1.47635,1.593 1.51054,1.60539 2.27307,0.82389 0.42579,-0.43639 26.57964,-44.81986 58.11965,-98.62995 z m 249.10044,62.58079 c -1.95996,-0.46205 -6.15709,-2.56966 -6.90008,-3.46492 -0.48516,-0.58457 -0.46369,-0.8717 0.14886,-1.99034 0.39369,-0.71897 1.06718,-1.73272 1.49664,-2.25279 l 0.78085,-0.94556 2.18686,1.45199 c 4.619,3.06685 10.37947,3.4467 12.97085,0.85532 2.97507,-2.97506 1.11821,-4.98585 -6.2573,-6.77603 -8.16133,-1.98091 -11.05114,-4.46575 -11.04826,-9.49996 0.003,-5.48091 4.07256,-8.98452 10.90551,-9.38922 4.46757,-0.2646 8.905,0.96239 12.07321,3.33835 0.79307,0.59475 0.78645,0.63703 -0.35855,2.28926 -1.83545,2.64856 -1.8989,2.66551 -4.56799,1.21987 -2.79818,-1.51556 -7.4821,-2.0768 -9.6922,-1.16134 -1.64406,0.68099 -2.59768,2.46608 -2.06537,3.86616 0.51417,1.35238 1.82932,1.9892 6.81337,3.29913 5.04293,1.32541 8.95437,3.17815 10.09683,4.78259 0.47185,0.66264 1.06228,2.18366 1.31207,3.38005 0.98878,4.73577 -1.88799,9.36732 -6.7072,10.79848 -2.36804,0.70323 -8.5804,0.8137 -11.1881,0.19896 z m 63.72711,-0.2985 c -2.95322,-1.0401 -4.82044,-2.29127 -6.94355,-4.65268 -4.60882,-5.12609 -5.19786,-13.88259 -1.33499,-19.8446 3.17052,-4.89339 7.81226,-7.30628 14.03693,-7.29675 10.51744,0.0161 17.69407,8.38573 16.24461,18.94493 -0.73754,5.37261 -3.96384,9.739 -8.91478,12.06503 -2.44686,1.14956 -3.2511,1.31402 -6.88967,1.4089 -3.10988,0.0811 -4.62897,-0.072 -6.19855,-0.62483 z m 10.52016,-5.58091 c 2.11859,-1.06282 4.30609,-3.69927 4.92833,-5.93978 0.5471,-1.9699 0.5471,-6.04218 0,-8.01208 -2.04905,-7.37795 -12.11892,-9.52702 -17.36259,-3.70546 -3.6508,4.05318 -3.66551,11.36063 -0.0309,15.38366 3.29056,3.64228 8.01814,4.50458 12.46519,2.27366 z m -50.25328,-9.94582 0,-15.85982 8.13587,0.002 c 8.82879,0.002 10.47384,0.26487 13.13354,2.09479 2.46165,1.69367 3.65422,4.31331 3.63989,7.99552 -0.0124,3.20017 -0.86994,5.3296 -2.93559,7.29014 -2.08361,1.97755 -3.98543,2.49045 -10.23333,2.7598 l -5.76721,0.24864 -0.11461,5.66422 -0.11461,5.66422 -2.87198,0 -2.87197,0 0,-15.85982 z m 16.33063,-1.70332 c 3.34993,-1.58965 3.44185,-6.47953 0.15377,-8.17987 -1.5681,-0.81089 -8.06943,-1.26812 -9.58436,-0.67405 l -1.13284,0.44424 0,4.26694 c 0,2.34682 0.12358,4.39053 0.27463,4.54157 0.15104,0.15105 2.20849,0.27463 4.57211,0.27463 3.12415,0 4.68496,-0.18387 5.71669,-0.67346 z m 51.64,1.70332 0,-15.85982 8.17341,0 c 8.95993,0 10.96412,0.33892 13.51652,2.28574 3.11079,2.37273 4.40087,8.16561 2.65596,11.92631 -0.8884,1.91473 -3.05102,4.08951 -4.6756,4.70188 -0.65214,0.24583 -1.13165,0.73723 -1.13008,1.15811 0,0.4021 1.3906,3.04828 3.08681,5.88039 1.69622,2.83211 3.08525,5.29582 3.08682,5.4749 0,0.1791 -1.50788,0.27178 -3.35421,0.20598 l -3.35701,-0.11965 -2.81802,-5.10209 c -1.54989,-2.80615 -3.02795,-5.35505 -3.28454,-5.66422 -0.70159,-0.84535 -5.55238,-0.77156 -5.8828,0.0895 -0.13755,0.35838 -0.25005,2.95362 -0.25005,5.76721 l 0,5.11559 -2.8836,0 -2.88361,0 0,-15.85981 z m 16.25763,-1.61532 c 1.8163,-0.7589 2.85415,-2.72015 2.56806,-4.853 -0.43036,-3.20858 -2.22907,-4.15084 -8.02453,-4.20363 -3.34527,-0.0305 -4.31733,0.0912 -4.62802,0.57934 -0.43192,0.67859 -0.55592,7.3687 -0.15588,8.41114 0.33952,0.88477 8.16022,0.93528 10.24037,0.0662 z m 22.0531,4.50677 0,-13.00445 -1.05668,-0.40175 c -0.58117,-0.22096 -2.71297,-0.40175 -4.73735,-0.40175 l -3.68067,0 0,-2.4777 0,-2.4777 12.46129,0.10903 12.46128,0.10903 0.12354,2.36867 0.12354,2.36867 -3.70123,0 c -2.03565,0 -4.17409,0.17978 -4.75201,0.39951 l -1.05078,0.39951 -0.10888,12.88566 -0.10888,12.88566 -2.98658,0.12103 -2.98659,0.12104 0,-13.00446 z m -134.60608,-55.91469 0.1066,-21.95043 5.35526,-0.11884 c 2.9454,-0.0654 5.7415,-0.0232 6.21357,0.0936 0.69836,0.17287 1.80185,2.65154 5.92155,13.30102 2.78478,7.19871 5.31686,13.35867 5.62686,13.68882 0.3537,0.3767 0.69985,0.45341 0.92941,0.20597 0.20118,-0.21686 2.54175,-6.04821 5.20125,-12.95856 2.6595,-6.91034 5.09904,-12.9864 5.42119,-13.50235 0.57078,-0.9141 0.73532,-0.93516 6.43909,-0.82388 l 5.85335,0.11419 0.1066,21.93598 0.1066,21.93598 -4.12305,0 -4.12304,0 -0.006,-15.13892 c -0.006,-14.46528 -0.19218,-16.9609 -1.19043,-15.95935 -0.22393,0.22467 -3.0828,7.26735 -6.35303,15.65039 l -5.94587,15.2419 -1.62965,0.12338 c -0.98523,0.0746 -1.79042,-0.0883 -2.03621,-0.41194 -0.2236,-0.29443 -2.95904,-7.11612 -6.07875,-15.15931 -5.54553,-14.29739 -6.54942,-16.47222 -7.02177,-15.21205 -0.12124,0.32344 -0.26708,7.35424 -0.32409,15.624 l -0.10367,15.03592 -4.22604,0.11744 -4.22603,0.11744 0.1066,-21.95043 z m 75.97283,21.6469 c -0.15106,-0.15105 -0.27464,-2.19017 -0.27464,-4.53138 0,-2.34121 -0.0463,-4.29192 -0.10299,-4.33492 -0.0566,-0.043 -4.83003,-0.18202 -10.60753,-0.30895 l -10.50456,-0.23079 -0.11884,-3.11131 -0.11885,-3.11132 8.50103,-13.36641 c 4.67555,-7.35153 8.79408,-13.69571 9.15226,-14.09818 0.57557,-0.64667 1.32531,-0.71853 6.44778,-0.61792 l 5.79654,0.11385 0.2203,13.38816 c 0.12116,7.36348 0.26019,13.42565 0.30896,13.47148 0.0488,0.0458 1.24724,0.13852 2.6633,0.20597 l 2.57464,0.12264 0.11901,3.60451 0.11905,3.6045 -2.25229,0 c -3.27376,0 -3.547,0.41478 -3.547,5.38469 l 0,4.09001 -4.05076,0 c -2.22796,0 -4.17439,-0.12359 -4.32541,-0.27463 z m -0.36976,-25.98676 c 0.0922,-7.62108 0.014,-9.16573 -0.46405,-9.16573 -0.62764,0 -11.79913,17.01577 -11.79913,17.97175 0,0.48758 1.03526,0.5683 6.07617,0.47372 l 6.07616,-0.114 0.11085,-9.16574 z"
         id="path4151"
         inkscape:connector-curvature="0" />
      <path
         style="fill:#ffffff;stroke:#000000;stroke-width:2;stroke-miterlimit:4;stroke-dasharray:none;stroke-opacity:1"
         d="m 257.1923,523.24712 c -7.27137,-0.36859 -13.90116,-1.20794 -21.19356,-2.68316 -6.59188,-1.33351 -14.81828,-3.67019 -14.71425,-4.17953 0.07,-0.34297 11.52862,-20.30286 11.8317,-20.60985 0.0567,-0.0574 1.94074,0.34426 4.18675,0.89265 8.44702,2.06245 11.62562,2.38886 23.85694,2.44983 13.04642,0.065 20.90039,-0.30345 25.58926,-1.20058 24.28139,-4.64579 45.51783,-15.88688 62.98729,-33.34108 18.95277,-18.93621 30.40794,-42.15931 34.24084,-69.4165 1.11034,-7.8961 0.99985,-24.16894 -0.21818,-32.13157 -3.56311,-23.29326 -12.38516,-42.95817 -27.20526,-60.64228 -4.87493,-5.81703 -17.83302,-17.11714 -27.21734,-23.7349 -1.24613,-0.87876 -4.49018,-2.82338 -7.20901,-4.32138 -2.71882,-1.498 -5.18156,-2.86923 -5.47273,-3.04719 -0.38988,-0.23828 0.94876,-2.87433 5.07883,-10.00122 3.08454,-5.32271 5.78472,-9.89027 6.00038,-10.15014 0.58478,-0.70461 8.92806,3.85051 17.25637,9.42133 33.26225,22.24916 56.20064,58.50761 61.96315,97.9444 2.20731,15.10619 1.90204,32.95173 -0.81638,47.72433 -7.44207,40.44212 -32.46507,76.13255 -68.25575,97.35353 -18.8523,11.17789 -42.34165,18.44981 -62.92137,19.47942 -9.87404,0.494 -11.4979,0.51172 -17.76768,0.19389 z m -61.34696,-17.34927 c -16.72177,-8.95491 -33.47185,-23.39744 -45.56265,-39.28579 -14.9434,-19.63689 -24.73089,-43.50808 -27.94871,-68.16542 -2.75691,-21.12554 -0.42432,-44.98291 6.32268,-64.66728 9.49366,-27.69778 26.75813,-51.45802 50.13656,-69.00049 20.46866,-15.35907 43.90978,-24.63669 70.42031,-27.87121 6.73441,-0.82167 26.11501,-0.70012 32.95546,0.20668 8.74499,1.15927 22.87238,4.23449 23.8238,5.18591 0.32858,0.32858 -10.90809,20.35905 -11.6932,20.84427 -0.19828,0.12254 -1.43309,-0.0517 -2.74404,-0.38713 -4.77151,-1.22101 -9.93761,-1.8827 -16.3896,-2.09923 -3.6251,-0.12166 -7.2399,-0.31363 -8.03289,-0.4266 -3.09845,-0.44141 -21.89494,0.974 -26.7916,2.01746 -17.57704,3.7456 -33.43185,10.98742 -48.12887,21.98328 -6.37276,4.76791 -18.13263,16.51927 -22.78722,22.77075 -12.94463,17.38562 -20.2731,34.82654 -23.45421,55.8183 -1.06619,7.03567 -1.44793,19.7526 -0.809,26.95031 2.20073,24.7917 11.54271,47.64618 27.21103,66.56977 2.05945,2.48733 4.15614,4.79455 4.6593,5.12717 0.50317,0.33262 3.05418,2.6498 5.66892,5.14929 2.61474,2.49949 6.55395,5.91507 8.75379,7.59018 2.19985,1.6751 3.99973,3.18431 3.99973,3.35379 0,0.44209 8.21206,5.71824 12.46128,8.00623 1.98248,1.06746 3.60451,2.004 3.60451,2.08119 0,0.17716 -10.66297,18.6951 -11.30708,19.63652 -0.43177,0.63109 -0.84069,0.50116 -4.3683,-1.38795 z m 289.51637,-80.70168 c -1.95996,-0.46205 -6.15709,-2.56966 -6.90008,-3.46492 -0.48516,-0.58457 -0.46369,-0.8717 0.14886,-1.99034 0.39369,-0.71897 1.06718,-1.73272 1.49664,-2.25279 l 0.78085,-0.94556 2.18686,1.45199 c 4.619,3.06685 10.37947,3.4467 12.97085,0.85532 2.97507,-2.97506 1.11821,-4.98585 -6.2573,-6.77603 -8.16133,-1.98091 -11.05114,-4.46575 -11.04826,-9.49996 0.003,-5.48091 4.07256,-8.98452 10.90551,-9.38922 4.46757,-0.2646 8.905,0.96239 12.07321,3.33835 0.79307,0.59475 0.78645,0.63703 -0.35855,2.28926 -1.83545,2.64856 -1.8989,2.66551 -4.56799,1.21987 -2.79818,-1.51556 -7.4821,-2.0768 -9.6922,-1.16134 -1.64406,0.68099 -2.59768,2.46608 -2.06537,3.86616 0.51417,1.35238 1.82932,1.9892 6.81337,3.29913 5.04293,1.32541 8.95437,3.17815 10.09683,4.78259 0.47185,0.66264 1.06228,2.18366 1.31207,3.38005 0.98878,4.73577 -1.88799,9.36732 -6.7072,10.79848 -2.36804,0.70323 -8.5804,0.8137 -11.1881,0.19896 z m 63.72711,-0.2985 c -2.95322,-1.0401 -4.82044,-2.29127 -6.94355,-4.65268 -4.60882,-5.12609 -5.19786,-13.88259 -1.33499,-19.8446 3.17052,-4.89339 7.81226,-7.30628 14.03693,-7.29675 10.51744,0.0161 17.69407,8.38573 16.24461,18.94493 -0.73754,5.37261 -3.96384,9.739 -8.91478,12.06503 -2.44686,1.14956 -3.2511,1.31402 -6.88967,1.4089 -3.10988,0.0811 -4.62897,-0.072 -6.19855,-0.62483 z m 10.52016,-5.58091 c 2.11859,-1.06282 4.30609,-3.69927 4.92833,-5.93978 0.5471,-1.9699 0.5471,-6.04218 0,-8.01208 -2.04905,-7.37795 -12.11892,-9.52702 -17.36259,-3.70546 -3.6508,4.05318 -3.66551,11.36063 -0.0309,15.38366 3.29056,3.64228 8.01814,4.50458 12.46519,2.27366 z m -50.25328,-9.94582 0,-15.85982 8.13587,0.002 c 8.82879,0.002 10.47384,0.26487 13.13354,2.09479 2.46165,1.69367 3.65422,4.31331 3.63989,7.99552 -0.0124,3.20017 -0.86994,5.3296 -2.93559,7.29014 -2.08361,1.97755 -3.98543,2.49045 -10.23333,2.7598 l -5.76721,0.24864 -0.11461,5.66422 -0.11461,5.66422 -2.87198,0 -2.87197,0 0,-15.85982 z m 16.33063,-1.70332 c 3.34993,-1.58965 3.44185,-6.47953 0.15377,-8.17987 -1.5681,-0.81089 -8.06943,-1.26812 -9.58436,-0.67405 l -1.13284,0.44424 0,4.26694 c 0,2.34682 0.12358,4.39053 0.27463,4.54157 0.15104,0.15105 2.20849,0.27463 4.57211,0.27463 3.12415,0 4.68496,-0.18387 5.71669,-0.67346 z m 51.64,1.70332 0,-15.85982 8.17341,0 c 8.95993,0 10.96412,0.33892 13.51652,2.28574 3.11079,2.37273 4.40087,8.16561 2.65596,11.92631 -0.8884,1.91473 -3.05102,4.08951 -4.6756,4.70188 -0.65214,0.24583 -1.13165,0.73723 -1.13008,1.15811 0,0.4021 1.3906,3.04828 3.08681,5.88039 1.69622,2.83211 3.08525,5.29582 3.08682,5.4749 0,0.1791 -1.50788,0.27178 -3.35421,0.20598 l -3.35701,-0.11965 -2.81802,-5.10209 c -1.54989,-2.80615 -3.02795,-5.35505 -3.28454,-5.66422 -0.70159,-0.84535 -5.55238,-0.77156 -5.8828,0.0895 -0.13755,0.35838 -0.25005,2.95362 -0.25005,5.76721 l 0,5.11559 -2.8836,0 -2.88361,0 0,-15.85981 z m 16.25763,-1.61532 c 1.8163,-0.7589 2.85415,-2.72015 2.56806,-4.853 -0.43036,-3.20858 -2.22907,-4.15084 -8.02453,-4.20363 -3.34527,-0.0305 -4.31733,0.0912 -4.62802,0.57934 -0.43192,0.67859 -0.55592,7.3687 -0.15588,8.41114 0.33952,0.88477 8.16022,0.93528 10.24037,0.0662 z m 22.0531,4.50677 0,-13.00445 -1.05668,-0.40175 c -0.58117,-0.22096 -2.71297,-0.40175 -4.73735,-0.40175 l -3.68067,0 0,-2.4777 0,-2.4777 12.46129,0.10903 12.46128,0.10903 0.12354,2.36867 0.12354,2.36867 -3.70123,0 c -2.03565,0 -4.17409,0.17978 -4.75201,0.39951 l -1.05078,0.39951 -0.10888,12.88566 -0.10888,12.88566 -2.98658,0.12103 -2.98659,0.12104 0,-13.00446 z m -134.60608,-55.91469 0.1066,-21.95043 5.35526,-0.11884 c 2.9454,-0.0654 5.7415,-0.0232 6.21357,0.0936 0.69836,0.17287 1.80185,2.65154 5.92155,13.30102 2.78478,7.19871 5.31686,13.35867 5.62686,13.68882 0.3537,0.3767 0.69985,0.45341 0.92941,0.20597 0.20118,-0.21686 2.54175,-6.04821 5.20125,-12.95856 2.6595,-6.91034 5.09904,-12.9864 5.42119,-13.50235 0.57078,-0.9141 0.73532,-0.93516 6.43909,-0.82388 l 5.85335,0.11419 0.1066,21.93598 0.1066,21.93598 -4.12305,0 -4.12304,0 -0.006,-15.13892 c -0.006,-14.46528 -0.19218,-16.9609 -1.19043,-15.95935 -0.22393,0.22467 -3.0828,7.26735 -6.35303,15.65039 l -5.94587,15.2419 -1.62965,0.12338 c -0.98523,0.0746 -1.79042,-0.0883 -2.03621,-0.41194 -0.2236,-0.29443 -2.95904,-7.11612 -6.07875,-15.15931 -5.54553,-14.29739 -6.54942,-16.47222 -7.02177,-15.21205 -0.12124,0.32344 -0.26708,7.35424 -0.32409,15.624 l -0.10367,15.03592 -4.22604,0.11744 -4.22603,0.11744 0.1066,-21.95043 z m 75.97283,21.6469 c -0.15106,-0.15105 -0.27464,-2.19017 -0.27464,-4.53138 0,-2.34121 -0.0463,-4.29192 -0.10299,-4.33492 -0.0566,-0.043 -4.83003,-0.18202 -10.60753,-0.30895 l -10.50456,-0.23079 -0.11884,-3.11131 -0.11885,-3.11132 8.50103,-13.36641 c 4.67555,-7.35153 8.79408,-13.69571 9.15226,-14.09818 0.57557,-0.64667 1.32531,-0.71853 6.44778,-0.61792 l 5.79654,0.11385 0.2203,13.38816 c 0.12116,7.36348 0.26019,13.42565 0.30896,13.47148 0.0488,0.0458 1.24724,0.13852 2.6633,0.20597 l 2.57464,0.12264 0.11901,3.60451 0.11905,3.6045 -2.25229,0 c -3.27376,0 -3.547,0.41478 -3.547,5.38469 l 0,4.09001 -4.05076,0 c -2.22796,0 -4.17439,-0.12359 -4.32541,-0.27463 z m -0.36976,-25.98676 c 0.0922,-7.62108 0.014,-9.16573 -0.46405,-9.16573 -0.62764,0 -11.79913,17.01577 -11.79913,17.97175 0,0.48758 1.03526,0.5683 6.07617,0.47372 l 6.07616,-0.114 0.11085,-9.16574 z"
         id="path4149"
         inkscape:connector-curvature="0" />
    </g>
  </g>
</svg>
